<svg xmlns="http://www.w3.org/2000/svg" xmlns:xlink="http://www.w3.org/1999/xlink">
	<symbol id="icon-logo" viewBox="0 0 16 16">
		<polygon points="3.35 3.16 2.6 3.16 2.6 9.65 2.21 9.65 2.21 2.78 3.58 2.78 5.26 5.72 5.04 6.11 3.35 3.16"/>
		<polygon points="6.65 4.39 6.65 5.17 5.03 8.01 3.56 5.45 3.56 9.65 3.18 9.65 3.18 4 5.03 7.23 6.65 4.39"/>
		<polygon points="6.65 6.31 5.67 8.01 6.12 8.01 6.65 7.09 6.65 6.31"/>
		<rect x="7.94" y="4.45" width="0.39" height="6.88"/>
		<rect x="6.97" y="4.45" width="0.39" height="6.88"/>
		<polygon points="8.71 6.83 8.71 7.61 9.88 9.67 10.11 9.29 8.71 6.83"/>
		<polygon points="10.52 11.58 12.82 7.57 12.82 13.22 12.44 13.22 12.44 9.02 10.96 11.58 10.52 11.58"/>
		<polygon points="13.79 6.34 13.79 13.22 13.4 13.22 13.4 6.73 12.64 6.73 9.88 11.57 8.7 9.53 8.7 8.75 9.88 10.8 12.42 6.34 13.79 6.34"/>
		<path d="M15.17,15.17H.83V.83H15.17ZM1.28,14.72H14.72V1.28H1.28Z"/>
	</symbol>
	<symbol id="icon-github" viewBox="0 0 25 25">
		<path fill-rule="evenodd" clip-rule="evenodd" d="M25 12.5C25 12.5522 24.9997 12.6042 24.999 12.6562C24.9154 5.65159 19.3513 0 12.5001 0C19.4036 5.64632e-05 25 5.59648 25 12.5ZM19.1259 23.1014C18.2806 23.61 17.3685 24.0325 16.4062 24.3614C16.2036 24.4017 16.0481 24.4511 15.9303 24.4885C15.68 24.5681 15.6003 24.5934 15.6003 24.3614C15.6003 24.2215 15.6019 23.9762 15.604 23.6484L15.604 23.6481V23.6481V23.6481V23.648V23.6478L15.604 23.6476L15.604 23.6473L15.604 23.6469C15.6083 22.9859 15.6148 21.9898 15.6148 20.8443C15.6148 19.6485 15.2153 18.8685 14.7669 18.4708C17.5504 18.1535 20.4746 17.0697 20.4746 12.1471C20.4746 10.7478 19.9896 9.60448 19.1882 8.70698C19.318 8.38417 19.746 7.08057 19.0656 5.31521C19.0656 5.31521 18.0174 4.97077 15.6316 6.62896C14.6326 6.345 13.5624 6.20255 12.5001 6.19771C11.4378 6.20255 10.3684 6.345 9.37135 6.62896C6.9826 4.97077 5.93292 5.31521 5.93292 5.31521C5.25417 7.08057 5.68203 8.38417 5.81182 8.70698C5.01221 9.60448 4.52391 10.7478 4.52391 12.1471C4.52391 17.058 7.44255 18.1569 10.219 18.481C9.86151 18.8011 9.53755 19.3665 9.42536 20.1948C8.71208 20.5223 6.90271 21.0887 5.78781 19.1294C5.78781 19.1294 5.12689 17.8991 3.87166 17.8086C3.87166 17.8086 2.65204 17.7923 3.78617 18.5878C3.78617 18.5878 4.60546 18.9817 5.17408 20.4631C5.17408 20.4631 5.90786 22.7506 9.38542 21.9753C9.38835 22.5559 9.3931 23.1185 9.39682 23.5607V23.5607C9.39997 23.934 9.4024 24.2215 9.4024 24.3614C9.4024 24.5903 9.31831 24.5639 9.07069 24.4861C8.95212 24.4489 8.79605 24.3998 8.59375 24.3614C7.65424 24.0408 6.76267 23.6311 5.93451 23.139C2.41425 20.9619 0.0552278 17.0865 0.000956605 12.6563C0.0846503 5.65163 5.64949 5.74758e-05 12.5 0C5.59644 0 0 5.59644 0 12.5C0 12.5522 0.000319485 12.6042 0.000956605 12.6563C0.000319485 12.7096 0 12.763 0 12.8165C0 17.408 2.38465 21.0297 5.93451 23.139C7.84255 24.319 10.0917 25 12.5 25C14.9337 25 17.205 24.3045 19.1259 23.1014ZM19.1259 23.1014C22.6127 20.9175 24.9451 17.0611 24.999 12.6562C24.9997 12.7096 25 12.763 25 12.8165C25 17.3799 22.6411 20.986 19.1259 23.1014ZM4.55743 18.3523C4.64628 18.3956 4.7438 18.3767 4.77128 18.3137C4.80268 18.2504 4.75103 18.1636 4.66032 18.1222C4.57004 18.0788 4.47231 18.0968 4.44545 18.1618C4.41611 18.225 4.46694 18.3109 4.55743 18.3523ZM5.27667 18.887C5.21713 18.9431 5.10082 18.917 5.0219 18.8283C4.94029 18.7399 4.925 18.6216 4.98533 18.5646C5.04669 18.5085 5.1595 18.5348 5.2413 18.6232C5.32292 18.7128 5.33885 18.8303 5.27667 18.887ZM5.4899 19.5084C5.56714 19.6213 5.69214 19.6719 5.76859 19.6179C5.84672 19.5626 5.84672 19.4273 5.77047 19.3126C5.69214 19.2005 5.56901 19.1518 5.49151 19.206C5.41344 19.2602 5.41344 19.3955 5.4899 19.5084ZM6.44255 20.3239C6.37417 20.4006 6.22854 20.3801 6.12193 20.2754C6.01281 20.173 5.98245 20.0278 6.05104 19.9511C6.12026 19.8742 6.26672 19.8959 6.37417 19.9997C6.48245 20.1018 6.51552 20.2481 6.44255 20.3239ZM7.06052 20.8363C7.20187 20.8785 7.34214 20.8333 7.37229 20.7339C7.40167 20.6329 7.30906 20.5173 7.16818 20.474C7.02583 20.4288 6.8849 20.4759 6.85557 20.5759C6.82708 20.6764 6.91943 20.7928 7.06052 20.8363ZM8.39339 20.81C8.39688 20.9146 8.27708 21.0015 8.1287 21.0033C7.97953 21.0067 7.85885 20.922 7.85724 20.8191C7.85724 20.7133 7.97438 20.6274 8.12354 20.6249C8.27188 20.6219 8.39339 20.706 8.39339 20.81ZM9.11094 20.8804C9.25828 20.8524 9.36135 20.7476 9.34359 20.6454C9.32479 20.5416 9.19276 20.4803 9.04526 20.5063C8.90062 20.5334 8.79568 20.6383 8.81365 20.7429C8.83203 20.8442 8.96609 20.9072 9.11094 20.8804Z"/>
		<path fill-rule="evenodd" clip-rule="evenodd" d="M12.5 24C18.8513 24 24 18.8513 24 12.5C24 6.14873 18.8513 1 12.5 1C6.14873 1 1 6.14873 1 12.5C1 18.8513 6.14873 24 12.5 24ZM12.5 25C19.4036 25 25 19.4036 25 12.5C25 5.59644 19.4036 0 12.5 0C5.59644 0 0 5.59644 0 12.5C0 19.4036 5.59644 25 12.5 25Z"/>
	</symbol>
	<symbol id="icon-resume" viewBox="0 0 25 25">
		<path fill-rule="evenodd" clip-rule="evenodd" d="M12.5 24C18.8513 24 24 18.8513 24 12.5C24 6.14873 18.8513 1 12.5 1C6.14873 1 1 6.14873 1 12.5C1 18.8513 6.14873 24 12.5 24ZM12.5 25C19.4036 25 25 19.4036 25 12.5C25 5.59644 19.4036 0 12.5 0C5.59644 0 0 5.59644 0 12.5C0 19.4036 5.59644 25 12.5 25Z"/>
		<path fill-rule="evenodd" clip-rule="evenodd" d="M8.62342 6.06539C8.25931 6.06539 7.96413 6.36057 7.96413 6.72467V18.5918C7.96413 18.9559 8.25931 19.251 8.62342 19.251H16.5348C16.8989 19.251 17.1941 18.9559 17.1941 18.5918V10.6804H14.557C13.4646 10.6804 12.5791 9.79485 12.5791 8.70252V6.06539H8.62342ZM13.8977 6.99776L16.2617 9.36181H14.557C14.1928 9.36181 13.8977 9.06663 13.8977 8.70252V6.99776ZM6.64557 6.72467C6.64557 5.63234 7.53108 4.74683 8.62342 4.74683H13.2384C13.4132 4.74683 13.581 4.81629 13.7046 4.93993L18.3196 9.5549C18.4432 9.67854 18.5127 9.84623 18.5127 10.0211V18.5918C18.5127 19.6841 17.6272 20.5696 16.5348 20.5696H8.62342C7.53108 20.5696 6.64557 19.6841 6.64557 18.5918V6.72467ZM9.94198 13.9768C9.94198 13.6127 10.2372 13.3175 10.6013 13.3175H12.5791C12.9432 13.3175 13.2384 13.6127 13.2384 13.9768C13.2384 14.3409 12.9432 14.6361 12.5791 14.6361H10.6013C10.2372 14.6361 9.94198 14.3409 9.94198 13.9768ZM9.94198 16.6139C9.94198 16.2498 10.2372 15.9546 10.6013 15.9546H14.557C14.9211 15.9546 15.2162 16.2498 15.2162 16.6139C15.2162 16.978 14.9211 17.2732 14.557 17.2732H10.6013C10.2372 17.2732 9.94198 16.978 9.94198 16.6139Z"/>
	</symbol>
	<symbol id="icon-linkedin" viewBox="0 0 25 25">
		<path fill-rule="evenodd" clip-rule="evenodd" d="M12.5 24C18.8513 24 24 18.8513 24 12.5C24 6.14873 18.8513 1 12.5 1C6.14873 1 1 6.14873 1 12.5C1 18.8513 6.14873 24 12.5 24ZM12.5 25C19.4036 25 25 19.4036 25 12.5C25 5.59644 19.4036 0 12.5 0C5.59644 0 0 5.59644 0 12.5C0 19.4036 5.59644 25 12.5 25Z"/>
		<path d="M9.65192 19.3037C9.65192 19.731 9.36711 20.0158 8.93989 20.0158H6.09179C5.66458 20.0158 5.37977 19.731 5.37977 19.3037V10.7594C5.37977 10.3322 5.66458 10.0474 6.09179 10.0474H8.93989C9.36711 10.0474 9.65192 10.3322 9.65192 10.7594V19.3037ZM7.51584 9.33538C6.3054 9.33538 5.37977 8.40975 5.37977 7.19931C5.37977 5.98887 6.3054 5.06323 7.51584 5.06323C8.72629 5.06323 9.65192 5.98887 9.65192 7.19931C9.65192 8.40975 8.72629 9.33538 7.51584 9.33538ZM19.6203 19.3037C19.6203 19.731 19.3355 20.0158 18.9082 20.0158H16.7722C16.345 20.0158 16.0601 19.731 16.0601 19.3037V16.8117V16.0996V14.6756C16.0601 14.106 15.5617 13.6075 14.9921 13.6075C14.4225 13.6075 13.9241 14.106 13.9241 14.6756V16.0996V16.8117V19.3037C13.9241 19.731 13.6393 20.0158 13.212 20.0158H11.076C10.6488 20.0158 10.3639 19.731 10.3639 19.3037V10.7594C10.3639 10.3322 10.6488 10.0474 11.076 10.0474H13.9241C14.1377 10.0474 14.2801 10.1186 14.4225 10.261C14.8497 10.1186 15.2769 10.0474 15.7041 10.0474C17.8402 10.0474 19.6203 11.8275 19.6203 13.9635V19.3037Z"/>
	</symbol>
	<symbol id="icon-linkedin-sdf" viewBox="0 0 75 76">
		<circle cx="37.5" cy="37.5" r="36" stroke="black" stroke-width="3" fill="none"/>
		<path d="M28.9557 57.9112C28.9557 59.1929 28.1013 60.0473 26.8197 60.0473H18.2754C16.9937 60.0473 16.1393 59.1929 16.1393 57.9112V32.2783C16.1393 30.9967 16.9937 30.1422 18.2754 30.1422H26.8197C28.1013 30.1422 28.9557 30.9967 28.9557 32.2783V57.9112ZM22.5475 28.0062C18.9162 28.0062 16.1393 25.2293 16.1393 21.5979C16.1393 17.9666 18.9162 15.1897 22.5475 15.1897C26.1788 15.1897 28.9557 17.9666 28.9557 21.5979C28.9557 25.2293 26.1788 28.0062 22.5475 28.0062ZM58.8608 57.9112C58.8608 59.1929 58.0064 60.0473 56.7247 60.0473H50.3165C49.0349 60.0473 48.1804 59.1929 48.1804 57.9112V50.435V48.2989V44.0267C48.1804 42.3179 46.6852 40.8226 44.9763 40.8226C43.2674 40.8226 41.7722 42.3179 41.7722 44.0267V48.2989V50.435V57.9112C41.7722 59.1929 40.9178 60.0473 39.6361 60.0473H33.2279C31.9462 60.0473 31.0918 59.1929 31.0918 57.9112V32.2783C31.0918 30.9967 31.9462 30.1422 33.2279 30.1422H41.7722C42.413 30.1422 42.8402 30.3558 43.2674 30.7831C44.5491 30.3558 45.8307 30.1422 47.1124 30.1422C53.5206 30.1422 58.8608 35.4824 58.8608 41.8906V57.9112Z"/>
	</symbol>
		<symbol id="icon-data-science" viewBox="0 0 25 25">
		<path d="M12.6846 18.67C12.707 18.6884 12.7322 18.7025 12.7592 18.7117C12.7853 18.7258 12.8134 18.7352 12.8424 18.7395C12.9587 18.7395 13.0702 18.6907 13.1524 18.6039C13.2346 18.5171 13.2808 18.3994 13.2808 18.2767C13.2808 18.154 13.2346 18.0363 13.1524 17.9495C13.0702 17.8627 12.9587 17.814 12.8424 17.814C12.8134 17.8183 12.7853 17.8276 12.7592 17.8417C12.7322 17.851 12.707 17.8651 12.6846 17.8834L12.6145 17.9389C12.5734 17.9819 12.5408 18.0331 12.5186 18.0895C12.4963 18.1459 12.4849 18.2064 12.4849 18.2675C12.4849 18.3285 12.4963 18.389 12.5186 18.4454C12.5408 18.5018 12.5734 18.553 12.6145 18.596L12.6846 18.67Z"/>
		<path d="M23.2614 15.2735C22.9331 15.2753 22.6142 15.3894 22.3525 15.5989C22.0909 15.8083 21.9007 16.1017 21.8106 16.435H20.6841V14.5841H23.6384C23.7022 14.583 23.7651 14.5672 23.8225 14.5378C26.5182 11.3865 24.2608 6.06027 20.3159 5.83816C19.4867 4.75871 18.3575 3.98116 17.0876 3.61505C15.8176 3.24894 14.4709 3.31274 13.2371 3.79745C11.1857 -1.51488 3.97972 -0.196051 3.6466 5.51423C2.80715 5.77976 2.0464 6.26851 1.43728 6.93362C0.828165 7.59872 0.391113 8.41788 0.168032 9.31255C-0.0550487 10.2072 -0.0566763 11.1474 0.163305 12.0429C0.383287 12.9384 0.8175 13.7593 1.42431 14.4267C1.46539 14.4761 1.51595 14.5156 1.57263 14.5428C1.62931 14.5699 1.69082 14.584 1.75305 14.5841H4.75116V16.435H3.61153C3.50634 16.066 3.27897 15.7493 2.97092 15.5426C2.66286 15.3359 2.29467 15.2531 1.93356 15.3092C1.57245 15.3653 1.2425 15.5566 1.00394 15.8483C0.765374 16.1399 0.634113 16.5124 0.634113 16.8978C0.634113 17.2831 0.765374 17.6556 1.00394 17.9473C1.2425 18.2389 1.57245 18.4303 1.93356 18.4864C2.29467 18.5425 2.66286 18.4597 2.97092 18.253C3.27897 18.0463 3.50634 17.7295 3.61153 17.3605H5.16319C5.22234 17.3621 5.28118 17.3511 5.33618 17.328C5.39117 17.3049 5.44117 17.2703 5.48316 17.2263C5.52431 17.1825 5.55676 17.1305 5.57859 17.0733C5.60042 17.0161 5.61119 16.9548 5.61027 16.8932V14.5841H8.17883V20.5998H5.76807C5.66288 20.2308 5.43551 19.914 5.12745 19.7073C4.8194 19.5006 4.45121 19.4178 4.0901 19.4739C3.72899 19.53 3.39904 19.7214 3.16047 20.013C2.92191 20.3047 2.79065 20.6772 2.79065 21.0625C2.79065 21.4478 2.92191 21.8203 3.16047 22.112C3.39904 22.4036 3.72899 22.595 4.0901 22.6511C4.45121 22.7072 4.8194 22.6244 5.12745 22.4177C5.43551 22.211 5.66288 21.8942 5.76807 21.5252H8.62154C8.73779 21.5252 8.84927 21.4765 8.93148 21.3897C9.01368 21.3029 9.05986 21.1852 9.05986 21.0625V14.5841H12.4875V16.8978C12.4875 17.0205 12.5337 17.1382 12.6159 17.225C12.6981 17.3118 12.8096 17.3605 12.9258 17.3605C13.0421 17.3605 13.1536 17.3118 13.2358 17.225C13.318 17.1382 13.3642 17.0205 13.3642 16.8978V14.5841H16.3623V21.0625C16.3623 21.1852 16.4085 21.3029 16.4907 21.3897C16.5729 21.4765 16.6843 21.5252 16.8006 21.5252H19.6365C19.7417 21.8942 19.9691 22.211 20.2771 22.4177C20.5852 22.6244 20.9534 22.7072 21.3145 22.6511C21.6756 22.595 22.0056 22.4036 22.2441 22.112C22.4827 21.8203 22.614 21.4478 22.614 21.0625C22.614 20.6772 22.4827 20.3047 22.2441 20.013C22.0056 19.7214 21.6756 19.53 21.3145 19.4739C20.9534 19.4178 20.5852 19.5006 20.2771 19.7073C19.9691 19.914 19.7417 20.2308 19.6365 20.5998H17.2389V14.5841H19.8075V16.8978C19.8066 16.9595 19.8173 17.0207 19.8392 17.0779C19.861 17.1351 19.8934 17.1872 19.9346 17.231C19.9766 17.275 20.0266 17.3096 20.0816 17.3326C20.1366 17.3557 20.1954 17.3667 20.2546 17.3652H21.8062C21.8882 17.6497 22.0435 17.9046 22.2546 18.1014C22.4658 18.2983 22.7246 18.4294 23.0022 18.48C23.2798 18.5307 23.5653 18.499 23.8268 18.3884C24.0883 18.2779 24.3156 18.0928 24.4833 17.8538C24.6511 17.6149 24.7526 17.3314 24.7767 17.0351C24.8008 16.7388 24.7465 16.4412 24.6198 16.1756C24.4931 15.91 24.299 15.6867 24.0592 15.5307C23.8193 15.3747 23.5432 15.2921 23.2614 15.2921V15.2735ZM2.16069 17.5873C1.98631 17.5873 1.81908 17.5141 1.69578 17.384C1.57248 17.2538 1.50321 17.0772 1.50321 16.8932C1.50321 16.7091 1.57248 16.5325 1.69578 16.4023C1.81908 16.2722 1.98631 16.199 2.16069 16.199C2.33448 16.199 2.50116 16.2719 2.62405 16.4017C2.74694 16.5314 2.81598 16.7074 2.81598 16.8908C2.81598 17.0743 2.74694 17.2503 2.62405 17.38C2.50116 17.5098 2.33448 17.5826 2.16069 17.5826V17.5873ZM4.31284 21.752C4.13847 21.752 3.97124 21.6789 3.84793 21.5487C3.72463 21.4185 3.65536 21.242 3.65536 21.0579C3.65536 20.8738 3.72463 20.6972 3.84793 20.5671C3.97124 20.4369 4.13847 20.3638 4.31284 20.3638C4.48606 20.3638 4.65217 20.4364 4.77465 20.5657C4.89713 20.695 4.96594 20.8704 4.96594 21.0532C4.96594 21.2361 4.89713 21.4115 4.77465 21.5408C4.65217 21.6701 4.48606 21.7427 4.31284 21.7427V21.752ZM21.0874 20.3638C21.2617 20.3638 21.429 20.4369 21.5523 20.5671C21.6756 20.6972 21.7449 20.8738 21.7449 21.0579C21.7449 21.242 21.6756 21.4185 21.5523 21.5487C21.429 21.6789 21.2617 21.752 21.0874 21.752C20.9142 21.752 20.748 21.6793 20.6256 21.55C20.5031 21.4207 20.4343 21.2454 20.4343 21.0625C20.4343 20.8796 20.5031 20.7043 20.6256 20.575C20.748 20.4456 20.9142 20.373 21.0874 20.373V20.3638ZM0.87641 10.6785C0.871157 9.66585 1.19514 8.68197 1.79424 7.89114C2.39335 7.10032 3.23131 6.55042 4.1682 6.33329C4.28202 6.30978 4.38238 6.23959 4.44728 6.13811C4.51219 6.03663 4.53635 5.91213 4.51447 5.79188C4.491 4.73542 4.83418 3.70635 5.47939 2.89844C6.1246 2.09052 7.02732 1.55949 8.01758 1.40535C9.00785 1.25121 10.0173 1.48458 10.8559 2.06153C11.6946 2.63847 12.3045 3.51919 12.5708 4.53784C12.5887 4.60192 12.6195 4.66116 12.6611 4.71149C12.7027 4.76181 12.7541 4.80203 12.8119 4.82937C12.8696 4.85756 12.9324 4.87216 12.996 4.87216C13.0596 4.87216 13.1224 4.85756 13.1801 4.82937C13.8908 4.47307 14.6682 4.28964 15.455 4.29258C16.2904 4.29258 17.1144 4.49739 17.8621 4.89086C18.6098 5.28434 19.2608 5.85574 19.7636 6.56004C19.8036 6.61482 19.8546 6.65947 19.913 6.6907C19.9714 6.72193 20.0357 6.73895 20.1012 6.74051C23.2965 6.78216 25.2383 10.8589 23.4105 13.6493H1.93276C1.24513 12.8308 0.868833 11.7725 0.87641 10.6785V10.6785ZM23.2614 17.5688C23.0871 17.5688 22.9198 17.4956 22.7965 17.3655C22.6732 17.2353 22.604 17.0587 22.604 16.8746C22.604 16.6906 22.6732 16.514 22.7965 16.3838C22.9198 16.2537 23.0871 16.1805 23.2614 16.1805C23.4358 16.1805 23.6031 16.2537 23.7264 16.3838C23.8497 16.514 23.9189 16.6906 23.9189 16.8746C23.9189 17.0587 23.8497 17.2353 23.7264 17.3655C23.6031 17.4956 23.4358 17.5688 23.2614 17.5688V17.5688Z"/>
		<path d="M17.3663 22.2287C17.0391 22.2292 16.7208 22.3412 16.4586 22.5479C16.1965 22.7547 16.0044 23.0452 15.9111 23.3763H13.3644V19.6743C13.3644 19.5516 13.3183 19.4339 13.2361 19.3471C13.1539 19.2603 13.0424 19.2115 12.9261 19.2115C12.8099 19.2115 12.6984 19.2603 12.6162 19.3471C12.534 19.4339 12.4878 19.5516 12.4878 19.6743V23.3763H10.0814C9.97623 23.0073 9.74886 22.6905 9.44081 22.4838C9.13275 22.2771 8.76457 22.1943 8.40345 22.2504C8.04234 22.3065 7.71239 22.4979 7.47383 22.7895C7.23527 23.0812 7.104 23.4537 7.104 23.839C7.104 24.2244 7.23527 24.5968 7.47383 24.8885C7.71239 25.1801 8.04234 25.3715 8.40345 25.4276C8.76457 25.4837 9.13275 25.4009 9.44081 25.1942C9.74886 24.9875 9.97623 24.6707 10.0814 24.3018H15.9155C15.9975 24.5865 16.1529 24.8415 16.3643 25.0384C16.5757 25.2353 16.8347 25.3663 17.1125 25.4168C17.3903 25.4673 17.676 25.4353 17.9376 25.3244C18.1991 25.2134 18.4264 25.0279 18.5939 24.7886C18.7614 24.5492 18.8626 24.2654 18.8862 23.9688C18.9098 23.6723 18.8549 23.3746 18.7276 23.1091C18.6002 22.8436 18.4055 22.6206 18.1652 22.4652C17.9248 22.3097 17.6482 22.2278 17.3663 22.2287V22.2287ZM8.62181 24.5192C8.45954 24.5051 8.30822 24.4271 8.19792 24.3007C8.08761 24.1742 8.02638 24.0086 8.02638 23.8367C8.02638 23.6648 8.08761 23.4992 8.19792 23.3727C8.30822 23.2463 8.45954 23.1683 8.62181 23.1541C8.78409 23.1683 8.9354 23.2463 9.04571 23.3727C9.15602 23.4992 9.21725 23.6648 9.21725 23.8367C9.21725 24.0086 9.15602 24.1742 9.04571 24.3007C8.9354 24.4271 8.78409 24.5051 8.62181 24.5192V24.5192ZM17.3663 24.5192C17.204 24.5051 17.0527 24.4271 16.9424 24.3007C16.8321 24.1742 16.7709 24.0086 16.7709 23.8367C16.7709 23.6648 16.8321 23.4992 16.9424 23.3727C17.0527 23.2463 17.204 23.1683 17.3663 23.1541C17.5286 23.1683 17.6799 23.2463 17.7902 23.3727C17.9005 23.4992 17.9617 23.6648 17.9617 23.8367C17.9617 24.0086 17.9005 24.1742 17.7902 24.3007C17.6799 24.4271 17.5286 24.5051 17.3663 24.5192V24.5192Z"/>
	</symbol>
		<symbol id="icon-low-level" viewBox="0 0 25 25">
		<path fill-rule="evenodd" clip-rule="evenodd" d="M0 22.2222V2.77778C0 1.25 1.25 0 2.77778 0H22.2222C23.75 0 25 1.25 25 2.77778V22.2222C25 23.75 23.75 25 22.2222 25H2.77778C1.25 25 0 23.75 0 22.2222ZM4.58363 5.55556L0.416965 1.3889C0.625298 0.972229 0.972521 0.625007 1.38919 0.416673L5.55585 4.58334C5.97252 4.30556 6.45863 4.16667 6.94474 4.16667C8.47252 4.16667 9.72252 5.41667 9.72252 6.94445C9.72252 8.47223 8.47252 9.72223 6.94474 9.72223C5.41697 9.72223 4.16697 8.47223 4.16697 6.94445C4.16697 6.45834 4.30585 5.97223 4.58363 5.55556ZM7.98641 6.94445C7.98641 6.3889 7.5003 5.90278 6.94474 5.90278C6.38919 5.90278 5.90308 6.3889 5.90308 6.94445C5.90308 7.50001 6.38919 7.98612 6.94474 7.98612C7.5003 7.98612 7.98641 7.50001 7.98641 6.94445ZM20.4169 19.4445L24.5836 23.6111C24.3752 24.0278 24.028 24.375 23.6113 24.5834L19.4447 20.4167C19.028 20.6945 18.5419 20.8334 18.0558 20.8334C16.528 20.8334 15.278 19.5834 15.278 18.0556C15.278 16.5278 16.528 15.2778 18.0558 15.2778C19.5836 15.2778 20.8336 16.5278 20.8336 18.0556C20.8336 18.5417 20.6947 19.0278 20.4169 19.4445ZM17.0141 18.0556C17.0141 18.6111 17.5002 19.0972 18.0558 19.0972C18.6113 19.0972 19.0975 18.6111 19.0975 18.0556C19.0975 17.5 18.6113 17.0139 18.0558 17.0139C17.5002 17.0139 17.0141 17.5 17.0141 18.0556ZM6.94467 20.8334C8.47245 20.8334 9.72245 19.5834 9.72245 18.0556C9.72245 17.5695 9.58356 17.0834 9.30579 16.6667L16.6669 9.30558C17.0836 9.58336 17.5697 9.72225 18.0558 9.72225C19.5836 9.72225 20.8336 8.47225 20.8336 6.94447C20.8336 5.41669 19.5836 4.16669 18.0558 4.16669C16.528 4.16669 15.278 5.41669 15.278 6.94447C15.278 7.43058 15.4169 7.91669 15.6947 8.33336L8.33356 15.6945C7.9169 15.4167 7.43079 15.2778 6.94467 15.2778C5.4169 15.2778 4.1669 16.5278 4.1669 18.0556C4.1669 19.5834 5.4169 20.8334 6.94467 20.8334ZM18.0558 5.9028C18.6113 5.9028 19.0975 6.38891 19.0975 6.94447C19.0975 7.50002 18.6113 7.98613 18.0558 7.98613C17.5002 7.98613 17.0141 7.50002 17.0141 6.94447C17.0141 6.38891 17.5002 5.9028 18.0558 5.9028ZM6.94467 17.0139C7.50023 17.0139 7.98634 17.5 7.98634 18.0556C7.98634 18.6111 7.50023 19.0972 6.94467 19.0972C6.38912 19.0972 5.90301 18.6111 5.90301 18.0556C5.90301 17.5 6.38912 17.0139 6.94467 17.0139Z"/>
	</symbol>
		<symbol id="icon-networking" viewBox="0 0 33 27">
		<path d="M16.4997 24.1514C15.6861 24.1514 15.0261 23.4914 15.0261 22.6778V13.2442C15.0261 12.4306 15.6861 11.7706 16.4997 11.7706C17.3133 11.7706 17.9733 12.4306 17.9733 13.2442V22.6778C17.9733 23.4914 17.3133 24.1514 16.4997 24.1514Z"/>
		<path d="M13.3042 21.5888L16.5009 24.8419L19.6952 21.5864L13.3042 21.5888Z"/>
		<path d="M16.5009 26.3155C16.1055 26.3155 15.7269 26.1565 15.4497 25.8745L12.253 22.6214C11.8372 22.1978 11.7154 21.5666 11.9452 21.0194C12.1744 20.4722 12.7102 20.1158 13.3036 20.1152L19.6946 20.1128C20.288 20.1128 20.8238 20.4686 21.0536 21.0158C21.2834 21.563 21.1628 22.1948 20.747 22.6184L17.5533 25.8745C17.2761 26.1565 16.8969 26.3155 16.5009 26.3155C16.5015 26.3155 16.5015 26.3155 16.5009 26.3155Z"/>
		<path d="M25.3309 23.3966H24.4286C23.4998 23.3966 22.7468 22.6436 22.7468 21.7148C22.7468 20.786 23.4998 20.033 24.4286 20.033H25.3309C27.7051 20.033 29.6359 18.1017 29.6359 15.7281C29.6359 13.3546 27.7045 11.4232 25.3309 11.4232C25.1509 11.4232 24.9685 11.4352 24.7724 11.461C24.2954 11.5222 23.8148 11.377 23.4524 11.0608C23.09 10.7446 22.88 10.2886 22.8758 9.80802C22.844 6.25429 19.9274 3.36294 16.3737 3.36294C12.7876 3.36294 9.86982 6.28068 9.86982 9.86682C9.86982 10.63 10.0006 11.3776 10.2592 12.088C10.4956 12.739 10.309 13.4686 9.78822 13.9257C9.26743 14.3829 8.51985 14.4741 7.90486 14.1549C7.45966 13.9245 6.97907 13.8075 6.47628 13.8075C4.75971 13.8075 3.36354 15.2037 3.36354 16.9203C3.36354 18.6369 4.75971 20.033 6.47628 20.033H8.58524C9.51403 20.033 10.267 20.786 10.267 21.7148C10.267 22.6436 9.51403 23.3966 8.58524 23.3966H6.47628C2.90515 23.3966 0 20.4914 0 16.9209C0 13.3504 2.90515 10.4446 6.47628 10.4446C6.49188 10.4446 6.50808 10.4446 6.52368 10.4446C6.51228 10.2526 6.50688 10.06 6.50688 9.86682C6.50688 4.42612 10.933 0 16.3743 0C18.9945 0 21.4616 1.01638 23.3216 2.86135C24.7754 4.30372 25.7263 6.12109 26.0821 8.09685C29.9593 8.47545 33 11.7538 33 15.7287C32.9994 19.9568 29.5597 23.3966 25.3309 23.3966Z"/>
	</symbol>
	<symbol id="icon-live" viewBox="0 0 25 25">
		<path fill-rule="evenodd" clip-rule="evenodd" d="M13.6061 5.95502C14.4493 5.14059 15.5787 4.68993 16.751 4.70012C17.9233 4.71031 19.0446 5.18052 19.8736 6.00948C20.7026 6.83844 21.1728 7.95982 21.183 9.13211C21.1932 10.3044 20.7425 11.4338 19.9281 12.277L19.9201 12.2852L17.6319 14.5733C17.6319 14.5733 17.632 14.5733 17.6319 14.5733C17.1787 15.0267 16.6332 15.3774 16.0325 15.6014C15.4318 15.8255 14.79 15.9178 14.1505 15.872C13.511 15.8262 12.8889 15.6434 12.3262 15.336C11.7636 15.0286 11.2737 14.6038 10.8897 14.0904C10.6722 13.7997 10.7316 13.3878 11.0223 13.1704C11.313 12.9529 11.7249 13.0123 11.9424 13.303C12.2135 13.6654 12.5593 13.9653 12.9565 14.1823C13.3537 14.3993 13.793 14.5284 14.2444 14.5607C14.6959 14.593 15.149 14.5279 15.5731 14.3697C15.9971 14.2115 16.3822 13.964 16.7022 13.6439L18.9863 11.3598C19.5588 10.7649 19.8756 9.9693 19.8684 9.14353C19.8612 8.31593 19.5293 7.52427 18.944 6.93905C18.3588 6.35384 17.5672 6.02188 16.7396 6.01469C15.9135 6.00751 15.1176 6.32449 14.5226 6.89746L13.2142 8.19824C12.9568 8.45418 12.5406 8.45297 12.2847 8.19552C12.0287 7.93808 12.0299 7.5219 12.2874 7.26595L13.6061 5.95502ZM9.85045 10.2665C10.4511 10.0425 11.093 9.95019 11.7325 9.99599C12.3719 10.0418 12.9941 10.2246 13.5567 10.532C14.1194 10.8394 14.6093 11.2641 14.9933 11.7775C15.2107 12.0682 15.1514 12.4802 14.8607 12.6976C14.57 12.915 14.158 12.8557 13.9406 12.565C13.6695 12.2025 13.3236 11.9026 12.9264 11.6856C12.5292 11.4686 12.09 11.3396 11.6386 11.3072C11.1871 11.2749 10.734 11.3401 10.3099 11.4982C9.88585 11.6564 9.50076 11.904 9.18078 12.2241L6.89671 14.5081C6.32413 15.103 6.00739 15.8987 6.01457 16.7244C6.02176 17.552 6.35371 18.3437 6.93893 18.9289C7.52415 19.5141 8.31581 19.8461 9.14341 19.8533C9.96919 19.8604 10.7648 19.5437 11.3597 18.9711L12.6597 17.6711C12.9164 17.4144 13.3326 17.4144 13.5893 17.6711C13.846 17.9278 13.846 18.344 13.5893 18.6007L12.277 19.913C11.4337 20.7274 10.3043 21.178 9.13198 21.1678C7.9597 21.1577 6.83832 20.6874 6.00936 19.8585C5.1804 19.0295 4.71018 17.9081 4.7 16.7359C4.68981 15.5636 5.14046 14.4342 5.95489 13.5909L5.96283 13.5827L8.25103 11.2947C8.25106 11.2946 8.251 11.2947 8.25103 11.2947C8.70427 10.8413 9.2498 10.4906 9.85045 10.2665Z"/>
		<path fill-rule="evenodd" clip-rule="evenodd" d="M12.5 24C18.8513 24 24 18.8513 24 12.5C24 6.14873 18.8513 1 12.5 1C6.14873 1 1 6.14873 1 12.5C1 18.8513 6.14873 24 12.5 24ZM12.5 25C19.4036 25 25 19.4036 25 12.5C25 5.59644 19.4036 0 12.5 0C5.59644 0 0 5.59644 0 12.5C0 19.4036 5.59644 25 12.5 25Z"/>
	</symbol>
	<symbol id="icon-python" viewBox="0 0 25 25">
		<path id="circle" d="M24.5 12.5C24.5 19.1274 19.1274 24.5 12.5 24.5C5.87258 24.5 0.5 19.1274 0.5 12.5C0.5 5.87258 5.87258 0.5 12.5 0.5C19.1274 0.5 24.5 5.87258 24.5 12.5Z" fill="none"/>
		<path d="M15.3192 20.5351C14.8533 20.5351 14.4762 20.1627 14.4762 19.7025C14.4762 19.2421 14.8533 18.8707 15.3192 18.8707C15.7851 18.8707 16.1622 19.2421 16.1622 19.7025C16.1622 20.1627 15.7851 20.5351 15.3192 20.5351ZM12.7362 22C17.645 22 17.3386 19.8973 17.3386 19.8973L17.3328 17.719H12.6493V17.0649H19.1926C19.1926 17.0649 22.3334 17.4173 22.3334 12.525C22.3334 7.63276 19.5929 7.8052 19.5929 7.8052H17.9562V10.0763C17.9562 10.0763 18.0442 12.7834 15.2593 12.7834H10.6135C10.6135 12.7834 8.00346 12.7427 8.00346 15.2762V19.4645C8.00346 19.4645 7.60713 22 12.7362 22ZM10.0151 4.46489C10.481 4.46489 10.8571 4.83724 10.8571 5.29753C10.8571 5.75783 10.481 6.12925 10.0151 6.12925C9.54915 6.12925 9.17218 5.75783 9.17218 5.29753C9.17218 4.83724 9.54915 4.46489 10.0151 4.46489ZM12.597 3C7.68931 3 7.99574 5.10271 7.99574 5.10271L8.00154 7.28102H12.685V7.93508H6.1407C6.1407 7.93508 3 7.58267 3 12.475C3 17.3672 5.74146 17.1948 5.74146 17.1948H7.37708V14.9237C7.37708 14.9237 7.2891 12.2165 10.075 12.2165H14.7198C14.7198 12.2165 17.3298 12.2573 17.3298 9.72371V5.5355C17.3298 5.5355 17.7262 3 12.597 3Z"/>
	</symbol>
	<symbol id="icon-book-review" viewBox="0 0 22 25">
		<path d="M21.875 17.5781V1.17187C21.875 0.522461 21.3525 0 20.7031 0H4.6875C2.09961 0 0 2.09961 0 4.6875V20.3125C0 22.9004 2.09961 25 4.6875 25H20.7031C21.3525 25 21.875 24.4775 21.875 23.8281V23.0469C21.875 22.6807 21.7041 22.3486 21.4404 22.1338C21.2354 21.3818 21.2354 19.2383 21.4404 18.4863C21.7041 18.2764 21.875 17.9443 21.875 17.5781ZM6.25 6.54297C6.25 6.38184 6.38184 6.25 6.54297 6.25H16.8945C17.0557 6.25 17.1875 6.38184 17.1875 6.54297V7.51953C17.1875 7.68066 17.0557 7.8125 16.8945 7.8125H6.54297C6.38184 7.8125 6.25 7.68066 6.25 7.51953V6.54297ZM6.25 9.66797C6.25 9.50684 6.38184 9.375 6.54297 9.375H16.8945C17.0557 9.375 17.1875 9.50684 17.1875 9.66797V10.6445C17.1875 10.8057 17.0557 10.9375 16.8945 10.9375H6.54297C6.38184 10.9375 6.25 10.8057 6.25 10.6445V9.66797ZM18.623 21.875H4.6875C3.82324 21.875 3.125 21.1768 3.125 20.3125C3.125 19.4531 3.82812 18.75 4.6875 18.75H18.623C18.5303 19.585 18.5303 21.04 18.623 21.875Z"/>
	</symbol>
	<symbol id="icon-tutorial" viewBox="0 0 32 32">
		<path d="M31,26c-0.6,0-1-0.4-1-1V12c0-0.6,0.4-1,1-1s1,0.4,1,1v13C32,25.6,31.6,26,31,26z"/>
		<path d="M16,21c-0.2,0-0.3,0-0.5-0.1l-15-8C0.2,12.7,0,12.4,0,12s0.2-0.7,0.5-0.9l15-8c0.3-0.2,0.6-0.2,0.9,0l15,8
				c0.3,0.2,0.5,0.5,0.5,0.9s-0.2,0.7-0.5,0.9l-15,8C16.3,21,16.2,21,16,21z"/>
		<path d="M17.4,22.6C17,22.9,16.5,23,16,23s-1-0.1-1.4-0.4L6,18.1V22c0,3.1,4.9,6,10,6s10-2.9,10-6v-3.9L17.4,22.6z"/>
	</symbol>
	<symbol id="icon-location" viewBox="0 0 25 30">
		<path d="M13 0C8.03748 0 4 4.3368 4 9.66722C4 11.2674 4.37247 12.854 5.08053 14.2613L12.5078 28.6901C12.6067 28.8824 12.7951 29.0016 13 29.0016C13.2049 29.0016 13.3933 28.8825 13.4922 28.6901L20.9222 14.2565C21.6276 12.854 22 11.2673 22 9.66713C22 4.3368 17.9625 0 13 0ZM19.9351 13.6765L13 27.1489L6.06768 13.6818C5.45078 12.4557 5.12507 11.0674 5.12507 9.66722C5.12507 5.00294 8.65773 1.20843 13 1.20843C17.3424 1.20843 20.875 5.00298 20.875 9.66722C20.875 11.0674 20.5492 12.4557 19.9351 13.6765Z"/>
		<path d="M13 4.83359C10.5188 4.83359 8.50002 7.00199 8.50002 9.66717C8.50002 12.3324 10.5188 14.5008 13 14.5008C15.4812 14.5008 17.5 12.3324 17.5 9.66722C17.5 7.00203 15.4812 4.83359 13 4.83359ZM13 13.2924C11.1389 13.2924 9.62501 11.6663 9.62501 9.66722C9.62501 7.66817 11.1389 6.04202 13 6.04202C14.8611 6.04202 16.375 7.66817 16.375 9.66722C16.375 11.6662 14.8611 13.2924 13 13.2924Z"/>
	</symbol>
	<symbol id="icon-email" viewBox="0 0 32 32">
		<path fill-rule="evenodd" clip-rule="evenodd" d="M7 6C5.35228 6 4 7.35228 4 9V23C4 24.6477 5.35228 26 7 26H25C26.6477 26 28 24.6477 28 23V9C28 7.35228 26.6477 6 25 6H7ZM2 9C2 6.24772 4.24772 4 7 4H25C27.7523 4 30 6.24772 30 9V23C30 25.7523 27.7523 28 25 28H7C4.24772 28 2 25.7523 2 23V9Z"/>
		<path fill-rule="evenodd" clip-rule="evenodd" d="M2.14848 9.47592C2.43793 9.00556 3.05388 8.85891 3.52424 9.14836L16.0001 16.8258L28.476 9.14836C28.9464 8.85891 29.5623 9.00556 29.8518 9.47592C30.1413 9.94628 29.9946 10.5622 29.5242 10.8517L16.5242 18.8517C16.2028 19.0495 15.7975 19.0495 15.476 18.8517L2.47604 10.8517C2.00569 10.5622 1.85903 9.94628 2.14848 9.47592Z"/>
	</symbol>
	<symbol id="icon-excel" viewBox="0 0 25 28">
		<path d="M1.07495 2.24997L16.7867 0.00633306C16.8753 -0.00638707 16.9657 0.000103057 17.0516 0.0253636C17.1376 0.0506241 17.2171 0.0940646 17.2848 0.152741C17.3525 0.211418 17.4067 0.283959 17.4439 0.365449C17.4811 0.44694 17.5004 0.535474 17.5004 0.625052V26.6813C17.5004 26.7707 17.4811 26.8591 17.444 26.9405C17.4069 27.0219 17.3527 27.0944 17.2852 27.153C17.2176 27.2117 17.1383 27.2552 17.0525 27.2805C16.9667 27.3059 16.8765 27.3125 16.7879 27.3L1.0737 25.0563C0.775735 25.0139 0.50309 24.8654 0.305845 24.638C0.108601 24.4107 2.88807e-06 24.1199 0 23.8189V3.48741C2.88807e-06 3.18644 0.108601 2.89558 0.305845 2.66825C0.50309 2.44093 0.775735 2.29241 1.0737 2.24997H1.07495ZM2.50112 4.57235V22.7339L15.0005 24.5201V2.78619L2.50112 4.57235ZM18.7503 22.4027H22.5001V4.90359H18.7503V2.40371H23.7501C24.0816 2.40371 24.3995 2.5354 24.6339 2.76981C24.8683 3.00422 25 3.32215 25 3.65365V23.6527C25 23.9842 24.8683 24.3021 24.6339 24.5365C24.3995 24.7709 24.0816 24.9026 23.7501 24.9026H18.7503V22.4027ZM10.2507 13.6532L13.7506 18.6529H10.7507L8.75081 15.7955L6.75091 18.6529H3.75106L7.25089 13.6532L3.75106 8.6534H6.75091L8.75081 11.5108L10.7507 8.6534H13.7506L10.2507 13.6532Z"/>
	</symbol>
	<symbol id="icon-word" viewBox="0 0 24 27">
		<path d="M18.0003 21.5066H21.6001V4.70744H18.0003V2.30756H22.8001C23.1183 2.30756 23.4235 2.43399 23.6485 2.65902C23.8736 2.88405 24 3.18926 24 3.5075V22.7065C24 23.0248 23.8736 23.33 23.6485 23.555C23.4235 23.7801 23.1183 23.9065 22.8001 23.9065H18.0003V21.5066ZM1.03195 2.15997L16.1152 0.00607974C16.2003 -0.00613159 16.2871 9.8935e-05 16.3696 0.024349C16.4521 0.0485991 16.5284 0.090302 16.5934 0.146632C16.6584 0.202961 16.7105 0.272601 16.7462 0.350831C16.7819 0.429062 16.8004 0.514055 16.8004 0.60005V25.614C16.8003 25.6999 16.7819 25.7848 16.7463 25.8629C16.7106 25.941 16.6586 26.0106 16.5938 26.0669C16.5289 26.1232 16.4528 26.1649 16.3704 26.1893C16.2881 26.2136 16.2014 26.22 16.1164 26.208L1.03075 24.0541C0.744705 24.0133 0.482966 23.8708 0.293612 23.6525C0.104257 23.4343 2.77255e-06 23.1551 0 22.8661V3.34791C2.77255e-06 3.05898 0.104257 2.77976 0.293612 2.56152C0.482966 2.34329 0.744705 2.20071 1.03075 2.15997H1.03195ZM2.40108 4.38946V21.8246L14.4005 23.5393V2.67475L2.40108 4.38946ZM10.8007 8.30726H13.2005V17.9068H10.8007L8.40078 15.5069L6.0009 17.9068H3.60102V8.30726H6.0009L6.0129 14.307L8.40078 11.9071L10.8007 14.2938V8.30726Z"/>
	</symbol>
	<symbol id="icon-javascript" viewBox="0 0 25 25">
		<path d="M19.16 23.0402C16.9788 23.0402 15.5687 22.0003 14.8812 20.6403L16.7937 19.5325C17.2975 20.355 17.9512 20.9589 19.11 20.9589C20.0825 20.9589 20.7037 20.4723 20.7037 19.801C20.7037 18.791 19.3562 18.3964 18.405 17.9889C16.71 17.2676 15.585 16.3614 15.585 14.4476C15.585 12.6864 16.9275 11.344 19.0263 11.344C20.5188 11.344 21.5937 11.8639 22.365 13.2227L20.5362 14.3976C20.1337 13.6763 19.6975 13.3911 19.0263 13.3911C18.3375 13.3911 17.9013 13.8276 17.9013 14.3976C17.9013 15.1026 18.3375 15.3877 19.345 15.824C21.4563 16.729 23.0537 17.44 23.0537 19.7675C23.0537 21.8825 21.3925 23.0402 19.16 23.0402ZM13.75 19.4989C13.75 21.9327 12.2512 23.219 10.17 23.219C8.28998 23.219 7.16374 22.5 6.60999 21.25H6.59126H6.58249H6.57749L8.48873 19.9139C8.85748 20.5677 9.19 21.0315 9.995 21.0315C10.7675 21.0315 11.25 20.6403 11.25 19.4666V11.25H13.75V19.4989ZM0 25H25V0H0V25Z"/>
	</symbol>
	<symbol id="icon-html" viewBox="0 0 24 27">
		<path d="M19.2468 8H19.2373H7.74931L8.02403 10.6667H18.9734C18.8129 13.0027 18.3274 17.9518 18.1493 20.2038L11.9993 21.9349V21.9401L11.9857 21.9466L5.8317 19.7812L5.4101 14.6667H8.42659L8.64011 17.4173L11.9912 18.6667H11.9993L15.3449 17.4668L15.689 13.3333H5.27546C5.22514 12.7987 4.57778 5.856 4.46489 5.33333H19.5161C19.4317 6.21333 19.3461 7.11733 19.2468 8ZM0 0L2.18417 24.1973L11.9857 26.6667L21.8131 24.1478L24 0H0Z"/>
	</symbol>
	<symbol id="icon-css" viewBox="0 0 23 27">
		<path d="M2.09464 23.6571L0 0H23L20.9021 23.6588L11.5 26.2857L2.09464 23.6571ZM18.2571 10.7082L18.5216 7.73623L18.7811 4.83659H11.5H4.21885L4.40778 7.57852L15.6449 7.5473L15.4281 10.4946L4.69528 10.6211L4.98442 13.3745L15.1833 13.3466L14.7414 17.3732L11.4984 18.2472L11.4967 18.2489L8.25864 17.3749L8.04178 14.9582H5.12407L5.53971 19.6174L11.4951 21.2668L11.5 21.2652L17.4586 19.6174L18.2571 10.7082Z"/>
	</symbol>
	<symbol id="icon-sql" viewBox="0 0 25 25">
		<path fill-rule="evenodd" clip-rule="evenodd" d="M16.9643 20.5357V22.3237C16.9643 23.3117 16.1658 24.1071 15.1809 24.1071H1.78341C0.795469 24.1071 0 23.3047 0 22.3149V1.79226C0 0.802088 0.802901 0 1.79333 0H10.7143V5.35884C10.7143 6.35116 11.5161 7.14286 12.5053 7.14286H16.9643V8.92857H8.04183C6.55912 8.92857 5.35714 10.127 5.35714 11.6061V17.8582C5.35714 19.337 6.54999 20.5357 8.04183 20.5357H16.9643ZM11.6071 0V5.35453C11.6071 5.84908 12.0098 6.25 12.4918 6.25H16.9643L11.6071 0ZM8.03086 9.82143C7.04732 9.82143 6.25 10.6252 6.25 11.6V17.8643C6.25 18.8466 7.05566 19.6429 8.03086 19.6429H23.2191C24.2027 19.6429 25 18.8391 25 17.8643V11.6C25 10.6177 24.1943 9.82143 23.2191 9.82143H8.03086ZM16.6747 17.7525C16.485 17.8203 16.2804 17.8571 16.0671 17.8571H15.1829C14.191 17.8571 13.3929 17.0553 13.3929 16.0661V13.3981C13.3929 12.3987 14.1943 11.6071 15.1829 11.6071H16.0671C17.059 11.6071 17.8571 12.409 17.8571 13.3981V16.0661C17.8571 16.5173 17.6938 16.9261 17.4237 17.2388L18.0962 17.9113L17.4649 18.5426L16.6747 17.7525ZM15.8865 16.9643H15.1776C14.6809 16.9643 14.2857 16.5646 14.2857 16.0716V13.3927C14.2857 12.8962 14.685 12.5 15.1776 12.5H16.0724C16.5691 12.5 16.9643 12.8997 16.9643 13.3927V16.0716C16.9643 16.272 16.8992 16.4561 16.7892 16.6043L15.5708 15.3859L14.9395 16.0173L15.8865 16.9643ZM9.82579 11.6071C8.83716 11.6071 8.03571 12.3998 8.03571 13.3929C8.03571 14.3791 8.82833 15.1786 9.82143 15.1786H10.7059C11.2037 15.1786 11.6071 15.5749 11.6071 16.0714C11.6071 16.5645 11.2119 16.9643 10.7152 16.9643H9.8205C9.3279 16.9643 8.92857 16.5569 8.92857 16.0754V16.0653H8.03571V16.0705C8.03571 17.0572 8.83384 17.8571 9.82579 17.8571H10.7099C11.6986 17.8571 12.5 17.0645 12.5 16.0714C12.5 15.0852 11.7074 14.2857 10.7143 14.2857H9.82979C9.33206 14.2857 8.92857 13.8894 8.92857 13.3929C8.92857 12.8997 9.3238 12.5 9.8205 12.5H10.7152C11.2078 12.5 11.6071 12.9046 11.6071 13.3929H12.5C12.5 12.4066 11.7019 11.6071 10.7099 11.6071H9.82579ZM23.2143 16.9643V17.8571H18.75V11.6071H19.6429V16.9643H23.2143Z"/>
	</symbol>
	<symbol id="icon-phone" viewBox="0 0 25 30">
		<path d="M21 24.8846C21.2761 24.8846 21.5 24.6608 21.5 24.3846C21.5 24.1085 21.2761 23.8846 21 23.8846V24.8846ZM5 23.8846C4.72386 23.8846 4.5 24.1085 4.5 24.3846C4.5 24.6608 4.72386 24.8846 5 24.8846V23.8846ZM13 25.9231V26.4231H13.0007L13 25.9231ZM13.9231 26.8462L13.4231 26.8455V26.8462H13.9231ZM21 23.8846H5V24.8846H21V23.8846ZM13 25.4231C12.7185 25.4231 12.4434 25.5065 12.2094 25.6629L12.765 26.4944C12.8345 26.4479 12.9163 26.4231 13 26.4231V25.4231ZM12.2094 25.6629C11.9754 25.8193 11.793 26.0415 11.6853 26.3016L12.6091 26.6843C12.6412 26.6069 12.6954 26.5409 12.765 26.4944L12.2094 25.6629ZM11.6853 26.3016C11.5775 26.5616 11.5494 26.8477 11.6043 27.1238L12.5851 26.9287C12.5687 26.8466 12.5771 26.7616 12.6091 26.6843L11.6853 26.3016ZM11.6043 27.1238C11.6592 27.3998 11.7947 27.6534 11.9937 27.8524L12.7008 27.1453C12.6417 27.0862 12.6014 27.0108 12.5851 26.9287L11.6043 27.1238ZM11.9937 27.8524C12.1928 28.0514 12.4463 28.187 12.7224 28.2419L12.9175 27.2611C12.8354 27.2448 12.76 27.2045 12.7008 27.1453L11.9937 27.8524ZM12.7224 28.2419C12.9984 28.2968 13.2846 28.2686 13.5446 28.1609L13.1619 27.237C13.0846 27.2691 12.9995 27.2774 12.9175 27.2611L12.7224 28.2419ZM13.5446 28.1609C13.8046 28.0532 14.0269 27.8708 14.1832 27.6368L13.3518 27.0812C13.3053 27.1508 13.2392 27.205 13.1619 27.237L13.5446 28.1609ZM14.1832 27.6368C14.3396 27.4028 14.4231 27.1276 14.4231 26.8462H13.4231C13.4231 26.9298 13.3983 27.0116 13.3518 27.0812L14.1832 27.6368ZM14.4231 26.8468C14.4233 26.6598 14.3867 26.4745 14.3152 26.3017L13.3911 26.6838C13.4123 26.735 13.4232 26.79 13.4231 26.8455L14.4231 26.8468ZM14.3152 26.3017C14.2437 26.1288 14.1389 25.9718 14.0066 25.8395L13.2995 26.5466C13.3388 26.5859 13.3699 26.6325 13.3911 26.6838L14.3152 26.3017ZM14.0066 25.8395C13.8744 25.7073 13.7173 25.6024 13.5445 25.5309L13.1624 26.4551C13.2137 26.4763 13.2603 26.5074 13.2995 26.5466L14.0066 25.8395ZM13.5445 25.5309C13.3716 25.4595 13.1864 25.4228 12.9993 25.4231L13.0007 26.4231C13.0562 26.423 13.1111 26.4339 13.1624 26.4551L13.5445 25.5309ZM7.46154 1.5H18.5385V0.5H7.46154V1.5ZM18.5385 1.5C19.6218 1.5 20.5 2.37821 20.5 3.46154H21.5C21.5 1.82593 20.1741 0.5 18.5385 0.5V1.5ZM20.5 3.46154V26.8462H21.5V3.46154H20.5ZM20.5 26.8462C20.5 27.9295 19.6218 28.8077 18.5385 28.8077V29.8077C20.1741 29.8077 21.5 28.4818 21.5 26.8462H20.5ZM18.5385 28.8077H7.46154V29.8077H18.5385V28.8077ZM7.46154 28.8077C6.37821 28.8077 5.5 27.9295 5.5 26.8462H4.5C4.5 28.4818 5.82593 29.8077 7.46154 29.8077V28.8077ZM5.5 26.8462V3.46154H4.5V26.8462H5.5ZM5.5 3.46154C5.5 2.37821 6.37821 1.5 7.46154 1.5V0.5C5.82593 0.5 4.5 1.82593 4.5 3.46154H5.5Z"/>
	</symbol>
	<symbol id="icon-c" viewBox="0 0 24 26">
		<path fill-rule="evenodd" clip-rule="evenodd" d="M23.0572 6.40529C23.241 6.72803 23.332 7.10411 23.3322 7.52977C23.3333 11.0066 23.3333 17.9583 23.3333 17.9583C23.3332 18.3746 23.2459 18.7434 23.0704 19.0614C22.8897 19.3881 22.6154 19.6616 22.2441 19.8766C20.9886 20.6012 19.7326 21.3248 18.4766 22.0483C16.7357 23.0513 14.9948 24.0542 13.2554 25.0596C12.4478 25.5262 11.6651 25.5093 10.8634 25.0358C10.1427 24.6101 7.67512 23.1904 5.44343 21.9064C3.98425 21.0669 2.62591 20.2854 1.92265 19.8777C1.5514 19.6625 1.27709 19.3892 1.09639 19.0622C0.920607 18.7443 0.833508 18.3755 0.833332 17.9592C0.833903 16.2208 0.833903 14.4824 0.833903 12.7441C0.833903 11.0057 0.833903 9.26736 0.834475 7.52898C0.83465 6.68461 1.19113 6.03501 1.92362 5.6105C2.62916 5.20146 3.994 4.41609 5.45852 3.57336C7.68617 2.2915 10.1444 0.876937 10.8638 0.452286C11.6651 -0.0209176 12.4478 -0.0378805 13.2551 0.428555C14.9701 1.41971 16.6863 2.40857 18.4026 3.39743C19.683 4.13512 20.9633 4.87281 22.2431 5.61147C22.6059 5.82188 22.8766 6.08783 23.0572 6.40529ZM17.91 11.184L14.4085 11.1593C14.4085 11.1593 14.2003 9.26068 12.1817 9.26068C10.1631 9.26068 9.68029 11.4401 9.68029 12.7978C9.68029 13.6909 10.038 16.3169 12.1817 16.3169C14.504 16.3169 14.4146 14.2888 14.4146 14.2888L17.7551 14.4798C17.7551 16.2332 16.6834 19.3359 12.1995 19.3359C9.43059 19.3359 5.87568 17.7282 5.87568 12.7978C5.87568 7.86727 9.50205 6.15234 12.1995 6.15234C16.4333 6.15234 17.91 9.7251 17.91 11.184Z"/>
	</symbol>
	<symbol id="icon-cpp" viewBox="0 0 23 26">
		<path fill-rule="evenodd" clip-rule="evenodd" d="M22.7177 6.45156C22.9057 6.78119 22.9987 7.16527 22.9988 7.59993C23 11.1506 23 18.2499 23 18.2499C22.9998 18.6751 22.9106 19.0517 22.7312 19.3764C22.5464 19.7101 22.266 19.9894 21.8865 20.209C20.6008 20.9502 19.3146 21.6905 18.0285 22.4308L18.0256 22.4324L18.0228 22.434C16.2474 23.4559 14.472 24.4777 12.698 25.502C11.8726 25.9785 11.0725 25.9613 10.253 25.4777C9.5175 25.0438 7.00242 23.5981 4.72421 22.2886L4.72054 22.2865L4.72014 22.2863C3.22565 21.4272 1.83365 20.6271 1.11354 20.2101C0.734054 19.9904 0.453643 19.7112 0.268892 19.3773C0.0891808 19.0526 0.000179981 18.676 0 18.2509C0.000584939 16.4755 0.000584939 14.7002 0.000584939 12.925C0.000584939 11.1497 0.000584939 9.37441 0.00116988 7.59912C0.00134986 6.73683 0.365722 6.07342 1.11453 5.63993C1.837 5.22147 3.23573 4.41737 4.73571 3.55506L4.73588 3.55496C7.01095 2.24707 9.51889 0.805302 10.2534 0.372145C11.0725 -0.111105 11.8726 -0.128473 12.6978 0.347938C14.4466 1.35766 16.1967 2.36503 17.9468 3.37241L17.947 3.37255L17.9477 3.37297C19.2605 4.12862 20.5733 4.88427 21.8856 5.64092C22.2565 5.85573 22.533 6.12741 22.7177 6.45156ZM21.5083 13.3541H22.3832V12.4793H21.5083V11.6044H20.6333V12.4793H19.7585V13.3541H20.6333V14.2292H21.5083V13.3541ZM19.1908 13.3541H18.316V14.2292H17.4411V13.3541H16.5662V12.4793H17.4411V11.6044H18.316V12.4793H19.1908V13.3541ZM11.5 16.7283C12.9225 16.7283 14.1619 15.9466 14.8142 14.7898L18.1336 16.713C16.8175 19.0127 14.3397 20.5629 11.5 20.5629C8.66557 20.5629 6.19164 19.0189 4.87363 16.726C4.2302 15.6066 3.86205 14.3088 3.86205 12.9249C3.86205 8.70673 7.2816 5.28708 11.5 5.28708C14.3255 5.28708 16.7924 6.8216 18.1138 9.1025L14.7894 11.0168C14.1306 9.88398 12.9047 9.12167 11.5 9.12167C9.39953 9.12167 7.69664 10.8245 7.69664 12.9249C7.69664 13.6118 7.87977 14.2557 8.19825 14.8119C8.85383 15.9564 10.0863 16.7283 11.5 16.7283Z"/>
	</symbol>
	<symbol id="icon-security" viewBox="0 0 27 25">
		<path d="M16.3252 8.44486V7.31261C16.3252 6.56333 16.0275 5.84475 15.4977 5.31493C14.9679 4.78511 14.2493 4.48746 13.5 4.48746C12.7507 4.48746 12.0321 4.78511 11.5023 5.31493C10.9725 5.84475 10.6748 6.56333 10.6748 7.31261V8.44852C10.4124 8.46912 10.1674 8.58783 9.98857 8.781C9.80976 8.97418 9.71029 9.22763 9.70998 9.49086V13.1069C9.71247 13.3829 9.82356 13.6468 10.0192 13.8415C10.2148 14.0361 10.4793 14.1459 10.7553 14.1471H16.2447C16.5219 14.1468 16.7876 14.0365 16.9835 13.8406C17.1795 13.6446 17.2897 13.3789 17.29 13.1018V9.48721C17.2896 9.224 17.1902 8.97058 17.0114 8.77742C16.8326 8.58426 16.5876 8.46552 16.3252 8.44486ZM13.9821 11.3654L13.9137 11.4191V12.3431L13.9141 12.3489C13.9173 12.4221 13.9001 12.4947 13.8644 12.5587C13.8287 12.6226 13.7759 12.6754 13.712 12.7111C13.6456 12.7461 13.5713 12.7635 13.4962 12.7616C13.4212 12.7597 13.3479 12.7387 13.2833 12.7005C13.2227 12.6637 13.1726 12.612 13.1379 12.5502C13.1032 12.4884 13.085 12.4187 13.0852 12.3478V11.4217L13.064 11.4041L13.0198 11.368C12.889 11.2642 12.7971 11.1192 12.7593 10.9566C12.7215 10.794 12.7399 10.6234 12.8114 10.4725C12.8798 10.3174 12.9987 10.1899 13.1487 10.1108C13.2987 10.0317 13.4711 10.0056 13.6378 10.0369H13.6385C13.8111 10.0695 13.9672 10.1605 14.0807 10.2946C14.1941 10.4287 14.258 10.5977 14.2617 10.7733C14.2645 10.887 14.2408 10.9998 14.1922 11.1026C14.1436 11.2054 14.0717 11.2954 13.9821 11.3654ZM15.2982 8.4456H11.7018V7.31261C11.7018 6.83571 11.8913 6.37834 12.2285 6.04112C12.5657 5.7039 13.0231 5.51445 13.5 5.51445C13.9769 5.51445 14.4343 5.7039 14.7715 6.04112C15.1087 6.37834 15.2982 6.83571 15.2982 7.31261V8.4456Z"/>
		<path d="M25.3696 0H1.63034C1.19795 2.2733e-06 0.783267 0.171771 0.477519 0.477519C0.171771 0.783267 2.2733e-06 1.19795 0 1.63034V18.0221C0.000786805 18.4541 0.172861 18.8681 0.478488 19.1734C0.784115 19.4787 1.19835 19.6504 1.63034 19.6507H9.76513L8.24567 23.5293C8.2228 23.5877 8.21452 23.6508 8.22157 23.7131C8.22862 23.7754 8.25077 23.835 8.28611 23.8868C8.32144 23.9386 8.36889 23.981 8.42433 24.0103C8.47976 24.0396 8.54152 24.0549 8.60421 24.0549H18.3465C18.4088 24.0549 18.4702 24.0397 18.5254 24.0108C18.5806 23.9818 18.6279 23.9399 18.6634 23.8886C18.6988 23.8373 18.7212 23.7781 18.7287 23.7162C18.7362 23.6544 18.7286 23.5916 18.7065 23.5333L17.2349 19.6507H25.3697C25.8017 19.6504 26.2159 19.4787 26.5215 19.1734C26.8271 18.8681 26.9992 18.4541 27 18.0221V1.63036C27 1.41626 26.9578 1.20425 26.8759 1.00645C26.794 0.808644 26.6739 0.628915 26.5225 0.477522C26.3711 0.326129 26.1914 0.206037 25.9936 0.124104C25.7957 0.0421706 25.5837 0 25.3696 0ZM25.2492 16.804H1.75079V2.30048C1.73894 2.18964 1.77076 2.07855 1.83951 1.9908C1.90826 1.90305 2.0085 1.84556 2.11896 1.83054H24.8794C24.99 1.84545 25.0905 1.90284 25.1595 1.99056C25.2286 2.07829 25.2607 2.18945 25.2492 2.30048L25.2492 16.804Z"/>
	</symbol>
	<symbol id="icon-arduino" viewBox="0 0 25 18">
		<path d="M1.30361 12.9508L0.0168622 17.151H1.0294L1.26165 16.3684H2.51682L2.7428 17.151H3.84386L2.55721 12.9508H1.30361ZM1.51596 15.5235L1.89821 14.2171L2.27614 15.5235H1.51596Z"/>
		<path d="M6.26314 15.2347C6.24794 15.2185 6.23245 15.2031 6.21667 15.1887C6.24833 15.1767 6.27921 15.164 6.30941 15.15C6.43196 15.0938 6.53931 15.0184 6.62852 14.9265C6.71872 14.8338 6.7896 14.722 6.83911 14.5943C6.88813 14.4681 6.91303 14.3231 6.91303 14.1636C6.91303 13.9437 6.87332 13.7535 6.79528 13.5981C6.71636 13.4409 6.60215 13.3115 6.45598 13.2134C6.31411 13.1183 6.14157 13.0496 5.94304 13.0093C5.75226 12.9706 5.53736 12.9508 5.30452 12.9508H3.99101V17.151H4.99835V15.5098H5.02825C5.13845 15.5098 5.23031 15.5341 5.30903 15.5841C5.38717 15.6336 5.44707 15.7066 5.49246 15.8078L6.10127 17.151H7.27331L6.53362 15.6527C6.44401 15.4707 6.35549 15.3342 6.26314 15.2347ZM5.825 14.429C5.79589 14.4845 5.7555 14.53 5.70148 14.568C5.64452 14.608 5.57383 14.6387 5.49109 14.6593C5.40374 14.6811 5.30403 14.6921 5.19462 14.6921H4.99835V13.8079H5.21972C5.4503 13.8079 5.62167 13.8441 5.72903 13.9156C5.82255 13.9778 5.86804 14.0827 5.86804 14.2364C5.86804 14.3107 5.85393 14.3738 5.825 14.429Z"/>
		<path d="M10.2246 13.4496C10.055 13.2791 9.84112 13.1514 9.58887 13.0704C9.34299 12.9911 9.05358 12.9508 8.72878 12.9508H7.39655V17.151H8.55624C8.93045 17.151 9.25779 17.1 9.52906 16.9995C9.80455 16.8977 10.0346 16.7498 10.2128 16.5602C10.3906 16.371 10.5232 16.1398 10.6065 15.8733C10.6883 15.6123 10.7296 15.3188 10.7296 15.0008C10.7296 14.6543 10.6882 14.3502 10.6062 14.0972C10.5225 13.838 10.3941 13.6202 10.2246 13.4496ZM9.40103 16.0022C9.22613 16.1965 8.97241 16.2909 8.62535 16.2909H8.40379V13.8108H8.67859C8.8728 13.8108 9.03584 13.8383 9.16299 13.8925C9.28632 13.945 9.38171 14.0191 9.45465 14.1189C9.52916 14.2212 9.58318 14.3497 9.61514 14.5003C9.64877 14.6598 9.66593 14.8445 9.66593 15.0494C9.66593 15.4864 9.57681 15.807 9.40103 16.0022Z"/>
		<path d="M13.1562 15.6228C13.1562 15.7676 13.1428 15.891 13.1163 15.9896C13.0916 16.0817 13.0552 16.1569 13.0079 16.2131C12.9626 16.2671 12.9072 16.3052 12.8387 16.3296C12.7641 16.3563 12.6687 16.3697 12.555 16.3697C12.4347 16.3697 12.3355 16.3543 12.2601 16.3238C12.1877 16.2944 12.1294 16.2524 12.082 16.1954C12.0343 16.1381 12.0002 16.0661 11.9805 15.9812C11.9585 15.8875 11.9475 15.7772 11.9475 15.6531V12.9508H10.9402V15.6986C10.9402 15.9256 10.9684 16.134 11.0236 16.318C11.0812 16.509 11.1761 16.6742 11.3058 16.8086C11.4355 16.943 11.6053 17.0469 11.8105 17.1172C12.0099 17.1859 12.2509 17.2207 12.5267 17.2207C12.7732 17.2207 12.9995 17.1859 13.1989 17.1172C13.4028 17.0473 13.5786 16.9413 13.7214 16.8021C13.8644 16.6627 13.9753 16.4872 14.0511 16.2805C14.1256 16.0776 14.1634 15.8399 14.1634 15.5742V12.9508H13.1562V15.6228Z"/>
		<path d="M14.6785 13.7957H15.5824V16.3H14.6785V17.151H17.5062V16.3H16.6023V13.7957H17.5062V12.9508H14.6785V13.7957Z"/>
		<path d="M20.3093 15.3441L19.1832 12.9508H18.0431V17.151H18.9813V14.7122L20.1133 17.151H21.2476V12.9508H20.3093V15.3441Z"/>
		<path d="M24.5085 13.4477C24.2144 13.0737 23.7735 12.8841 23.1984 12.8841C22.9523 12.8841 22.7176 12.9277 22.5007 13.0137C22.2808 13.1009 22.0865 13.2365 21.9231 13.4173C21.7611 13.5965 21.6325 13.827 21.541 14.1022C21.4505 14.3739 21.4047 14.6997 21.4047 15.0706C21.4047 15.7559 21.5504 16.289 21.8379 16.6555C22.132 17.0306 22.5729 17.2207 23.1481 17.2207C23.3942 17.2207 23.6291 17.1771 23.846 17.0911C24.066 17.0038 24.2602 16.8681 24.4234 16.6876C24.5852 16.5085 24.7138 16.2781 24.8056 16.0027C24.8959 15.7311 24.9418 15.4053 24.9418 15.0342C24.9418 14.3469 24.796 13.8131 24.5085 13.4477ZM23.8456 15.6301C23.8168 15.7851 23.7718 15.9158 23.7119 16.0187C23.655 16.1166 23.5846 16.1884 23.4969 16.2379C23.4094 16.2872 23.3005 16.3122 23.1733 16.3122C22.9215 16.3122 22.746 16.2185 22.6368 16.0258C22.5168 15.8141 22.4559 15.4806 22.4559 15.0342C22.4559 14.8246 22.471 14.6362 22.501 14.4748C22.5298 14.3201 22.5751 14.1896 22.6359 14.0867C22.6938 13.9884 22.7643 13.9164 22.8517 13.8667C22.9379 13.8176 23.046 13.7927 23.1733 13.7927C23.427 13.7927 23.603 13.8862 23.7111 14.0786C23.8302 14.2903 23.8906 14.6242 23.8906 15.0706C23.8906 15.2808 23.8755 15.4691 23.8456 15.6301Z"/>
		<path d="M18.5809 11.9633C16.984 11.9633 15.6188 11.4249 14.4172 10.3236C13.675 9.64356 13.063 8.81034 12.5 7.94398C11.9371 8.81034 11.325 9.64356 10.5829 10.3236C9.29181 11.5069 7.81164 12.0404 6.05853 11.9544C2.71535 11.9399 0 9.30151 0 6.06058C0 2.81073 2.73025 0.166748 6.08618 0.166748C7.92262 0.166748 9.46877 0.774484 10.8126 2.02456C11.4581 2.62504 12.0029 3.3216 12.5 4.05041C12.9971 3.3216 13.542 2.62504 14.1874 2.02456C15.5312 0.774484 17.0774 0.166748 18.9138 0.166748C22.2698 0.166748 25 2.81073 25 6.06058C25 9.30151 22.2847 11.9399 18.9415 11.9544C18.82 11.9604 18.6997 11.9633 18.5809 11.9633ZM13.7226 5.98195C14.3887 7.06262 15.0352 8.06849 15.8226 8.79004C16.7114 9.60464 17.6483 9.93973 18.8593 9.87571L18.9138 9.87424C21.1227 9.87424 22.9198 8.16349 22.9198 6.06058C22.9198 3.95777 21.1227 2.24691 18.9138 2.24691C17.6098 2.24691 16.5582 2.66024 15.6043 3.54758C14.8918 4.21041 14.3036 5.05961 13.7226 5.98195ZM6.08618 2.24691C3.87729 2.24691 2.08016 3.95777 2.08016 6.06058C2.08016 8.16349 3.87729 9.87424 6.08618 9.87424L6.14079 9.87571C7.35194 9.93973 8.2886 9.60464 9.1774 8.79004C9.96484 8.06849 10.6114 7.06262 11.2774 5.98195C10.6964 5.05961 10.1082 4.21041 9.39583 3.54758C8.44183 2.66024 7.39018 2.24691 6.08618 2.24691Z"/>
		<path d="M19.1889 5.30461V4.17659H18.0148V5.30461H16.8869V6.47302H18.0148V7.60938H19.1889V6.47302H20.3169V5.30461H19.1889Z"/>
		<path d="M4.39718 5.29049H8.10468V6.49557H4.39718V5.29049Z"/>
	</symbol>
	<symbol id="icon-arm" viewBox="0 0 36 36">
		<path d="M7.45243 20.3446C5.99366 20.3446 5.05497 19.0888 5.05497 17.592C5.05497 16.0571 5.99366 14.8266 7.45243 14.8266C8.73361 14.8266 9.90063 15.7273 9.90063 17.6173C9.90063 19.4186 8.72093 20.3446 7.45243 20.3446Z" fill="white"/>
		<path fill-rule="evenodd" clip-rule="evenodd" d="M18 36C27.9411 36 36 27.9411 36 18C36 8.05887 27.9411 0 18 0C8.05888 0 0 8.05887 0 18C0 27.9411 8.05888 36 18 36ZM11.7907 13.241H9.77378V14.2431C8.96194 13.1776 7.84566 13.0127 7.21142 13.0127C4.92812 13.0127 3 14.7379 3 17.5539C3 19.926 4.5222 22.1459 7.18604 22.1459C7.80761 22.1459 8.88583 22.0063 9.77378 20.9789V21.8795H11.7907V13.241ZM16.1924 13.241H14.1628V21.8668H16.1797V17.389C16.1797 16.8182 16.1797 15.9937 16.7378 15.3975C17.1311 14.9915 17.5624 14.9281 17.9937 14.9281C18.1966 14.9281 18.5645 14.9408 19.0211 15.2325L19.8457 13.4059C19.2875 13.0761 18.7548 13 18.26 13C17.8034 13 17.4228 13.0634 17.0296 13.2917C16.7505 13.4567 16.4207 13.7484 16.1924 14.0148V13.241ZM23.1564 13.241H21.1395V21.8922H23.1057V17.4398C23.1057 16.704 23.1438 15.9683 23.4989 15.4736C23.7653 15.1057 24.1966 14.8393 24.6913 14.8393C25.4144 14.8393 25.7188 15.2706 25.8457 15.6004C25.9345 15.778 26.0359 16.1712 26.0359 17.1353V21.8922H28.0529V17.4398C28.0529 16.704 28.0909 15.9683 28.4461 15.4736C28.7125 15.1057 29.1438 14.8393 29.6385 14.8393C30.3615 14.8393 30.666 15.2706 30.7928 15.6004C30.8816 15.778 30.9831 16.1712 30.9831 17.1353V21.8922H33V16.5518C33 15.296 32.7082 14.6617 32.5433 14.37C32.0486 13.5074 31.1353 13.0127 30.0825 13.0127C29.3214 13.0127 28.2431 13.2537 27.5201 14.2812C27.0381 13.444 26.1882 13.0127 25.2875 13.0127C24.6279 13.0127 23.8288 13.2156 23.1564 14.0402V13.241Z" fill="white"/>
	</symbol>
	<symbol id="icon-stm" viewBox="0 0 50 50">
		<path fill-rule="evenodd" clip-rule="evenodd" d="M35.5509 20.3605H42.3037L34.691 37.9187H27.9553L35.5509 20.3605Z" fill="white"/>
		<path fill-rule="evenodd" clip-rule="evenodd" d="M44.3561 15.607H16.2734L15.5894 15.7474L15.0281 15.9227L14.3967 16.1684L13.467 16.677L13.081 16.9751L12.6951 17.3611L12.0987 17.9751L11.748 18.6414L11.4147 19.2028L11.2043 19.8518L10.9763 20.6938V22.3601L11.2043 23.2198L11.362 23.7635L11.59 24.2721L11.8883 24.7105L12.2567 25.2194L12.9584 25.9909L18.2731 31.0076L18.3258 31.2356L18.5011 31.4989L18.589 31.7969V32.095L18.5011 32.3409L18.2907 32.6916L18.1151 32.8496L17.9048 32.9372L17.6065 33.1126H3.94255L13.1161 11.7654H46.0051L44.3561 15.607Z" fill="white"/>
		<path fill-rule="evenodd" clip-rule="evenodd" d="M30.5342 20.3605L22.9388 37.9187H19.5711L19.3784 37.8486L19.3081 37.7259L19.3784 37.5503L19.4834 37.4979L20.2378 37.1293L20.8868 36.726L21.5532 36.1296L21.8515 35.8489L22.1145 35.4982L22.4128 35.0596L22.6232 34.6736L22.8338 34.2526L22.9388 33.8316L23.2371 33.0949L23.3074 32.2882V31.3936L23.1845 30.5166L22.9215 29.6395L22.5005 28.8852L22.1145 28.2889L21.7288 27.7802L16.0981 22.3952L15.9227 22.1848L15.8 21.9742L15.7121 21.7111V21.5008L15.8 21.2548L15.8174 20.9921L15.9751 20.7815L16.1857 20.6061L16.3611 20.4831L16.6067 20.3955L16.9224 20.3605H30.5342Z" fill="white"/>
	</symbol>
	<symbol id="icon-usb" viewBox="0 0 24 30">
		<path fill-rule="evenodd" clip-rule="evenodd" d="M24 12H22.116C20.994 18 16.5 19.4253 13.5 19.4253V28.5C13.5 29.328 12.828 30 12 30C11.172 30 10.5 29.328 10.5 28.5V25.4253C6.00002 25.4253 2.54852 23.4047 1.66202 17.7122C0.703517 17.2112 0.0045166 16.2195 0.0045166 15.063C0.0045166 13.4055 1.35302 12.063 3.01052 12.063C4.66652 12.063 6.01952 13.4055 6.01952 15.063C6.01952 16.119 5.49002 17.0427 4.66502 17.5767C5.32952 21.4107 7.50002 22.3367 10.5 22.5212V7.5H7.42202L11.922 0L16.422 7.5H13.5V16.5059C16.5 16.2779 18.3675 15 19.116 12H18V6H24V12Z" fill="white"/>
	</symbol>
	<symbol id="icon-docker" viewBox="0 0 28 28">
		<path fill-rule="evenodd" clip-rule="evenodd" d="M14 27.125C21.2487 27.125 27.125 21.2487 27.125 14C27.125 6.75126 21.2487 0.875 14 0.875C6.75126 0.875 0.875 6.75126 0.875 14C0.875 21.2487 6.75126 27.125 14 27.125ZM4.62645 14.8826C4.78666 17.6025 6.4065 21.5 12.125 21.5C18.5 21.5 21.3437 16.8125 21.9687 14.4688C22.75 14.4688 24.5 14 25.25 12.125C24.7812 11.6562 22.9062 11.6562 21.9687 12.125C21.9687 11.375 21.5 9.78125 20.5625 9.3125C19.9375 9.93753 18.9687 11.5625 20.0937 13.0625C19.625 14 18.375 14 17.75 14H5.50897C5.01258 14 4.59726 14.387 4.62645 14.8826ZM14 5.5625H15.875V7.4375H14V5.5625ZM8.375 8.375H10.25V10.25H8.375V8.375ZM5.5625 11.1875H7.4375V13.0625H5.5625V11.1875ZM8.375 11.1875H10.25V13.0625H8.375V11.1875ZM11.1875 11.1875H13.0625V13.0625H11.1875V11.1875ZM14 11.1875H15.875V13.0625H14V11.1875ZM16.8125 11.1875H18.6875V13.0625H16.8125V11.1875ZM13.0625 8.375H11.1875V10.25H13.0625V8.375ZM15.875 8.375H14V10.25H15.875V8.375Z" fill="white"/>
	</symbol>
	<symbol id="icon-wireshark" viewBox="0 0 30 30">
		<path d="M29.3875 19.2564C29.7861 17.9071 30 16.4785 30 15C30 6.71573 23.2843 0 15 0C6.71573 0 0 6.71573 0 15C0 16.4721 0.212072 17.8948 0.607332 19.2389L7.60875 19.1695C7.695 18.4326 8.04047 15.7354 9.67969 12.6061C11.5491 9.022 15.1158 5.33293 21.3858 5.2345C21.496 5.23549 21.604 5.26592 21.6985 5.32263C21.793 5.37933 21.8707 5.46026 21.9234 5.55704C21.9762 5.65383 22.0022 5.76295 21.9986 5.87312C21.9951 5.9833 21.9622 6.09053 21.9033 6.18372C18.5095 11.5392 21.1837 18.2432 21.5869 19.1868L29.3875 19.2564Z" fill="white"/>
		<path d="M28.9636 20.4897L21.1509 20.4243C21.0356 20.4217 20.9234 20.3869 20.8268 20.3239C20.7302 20.2609 20.6532 20.1721 20.6044 20.0676C20.6044 20.0676 17.153 12.8198 20.288 6.56668C15.202 7.04106 12.383 10.0664 10.7723 13.1789C9.04688 16.5117 8.73047 19.8398 8.73047 19.8398C8.71763 19.9923 8.64878 20.1345 8.53719 20.2392C8.42561 20.3439 8.27921 20.4035 8.12625 20.4065L1.0294 20.472C3.21591 26.0501 8.64668 30 15 30C21.3466 30 26.7726 26.0585 28.9636 20.4897Z" fill="white"/>
	</symbol>
	<symbol id="icon-embedded" viewBox="0 0 31 31" fill="none">
		<path d="M12.5832 16.9584C12.2947 16.9584 12.0128 17.0439 11.773 17.2042C11.5331 17.3644 11.3462 17.5922 11.2358 17.8587C11.1255 18.1251 11.0966 18.4184 11.1529 18.7013C11.2091 18.9841 11.348 19.244 11.552 19.4479C11.7559 19.6519 12.0158 19.7908 12.2987 19.8471C12.5816 19.9033 12.8748 19.8744 13.1413 19.7641C13.4077 19.6537 13.6355 19.4668 13.7957 19.227C13.956 18.9871 14.0415 18.7052 14.0415 18.4167C14.0415 18.03 13.8879 17.659 13.6144 17.3856C13.3409 17.1121 12.9699 16.9584 12.5832 16.9584ZM12.5832 11.1251C12.2947 11.1251 12.0128 11.2106 11.773 11.3709C11.5331 11.5311 11.3462 11.7589 11.2358 12.0253C11.1255 12.2918 11.0966 12.585 11.1529 12.8679C11.2091 13.1508 11.348 13.4107 11.552 13.6146C11.7559 13.8186 12.0158 13.9575 12.2987 14.0137C12.5816 14.07 12.8748 14.0411 13.1413 13.9307C13.4077 13.8204 13.6355 13.6334 13.7957 13.3936C13.956 13.1538 14.0415 12.8718 14.0415 12.5834C14.0415 12.1966 13.8879 11.8257 13.6144 11.5522C13.3409 11.2787 12.9699 11.1251 12.5832 11.1251ZM18.4165 11.1251C18.1281 11.1251 17.8461 11.2106 17.6063 11.3709C17.3665 11.5311 17.1796 11.7589 17.0692 12.0253C16.9588 12.2918 16.9299 12.585 16.9862 12.8679C17.0425 13.1508 17.1814 13.4107 17.3853 13.6146C17.5893 13.8186 17.8491 13.9575 18.132 14.0137C18.4149 14.07 18.7081 14.0411 18.9746 13.9307C19.2411 13.8204 19.4688 13.6334 19.6291 13.3936C19.7893 13.1538 19.8748 12.8718 19.8748 12.5834C19.8748 12.1966 19.7212 11.8257 19.4477 11.5522C19.1742 11.2787 18.8033 11.1251 18.4165 11.1251ZM28.6248 16.9584C29.0116 16.9584 29.3825 16.8048 29.656 16.5313C29.9295 16.2578 30.0832 15.8869 30.0832 15.5001C30.0832 15.1133 29.9295 14.7424 29.656 14.4689C29.3825 14.1954 29.0116 14.0417 28.6248 14.0417H25.7082V11.1251H28.6248C29.0116 11.1251 29.3825 10.9714 29.656 10.6979C29.9295 10.4245 30.0832 10.0535 30.0832 9.66675C30.0832 9.27997 29.9295 8.90904 29.656 8.63555C29.3825 8.36206 29.0116 8.20841 28.6248 8.20841H25.4457C25.2279 7.59679 24.8768 7.0413 24.4177 6.58223C23.9586 6.12315 23.4031 5.772 22.7915 5.55425V2.37508C22.7915 1.98831 22.6379 1.61737 22.3644 1.34388C22.0909 1.07039 21.7199 0.916748 21.3332 0.916748C20.9464 0.916748 20.5755 1.07039 20.302 1.34388C20.0285 1.61737 19.8748 1.98831 19.8748 2.37508V5.29175H16.9582V2.37508C16.9582 1.98831 16.8045 1.61737 16.531 1.34388C16.2575 1.07039 15.8866 0.916748 15.4998 0.916748C15.1131 0.916748 14.7421 1.07039 14.4686 1.34388C14.1951 1.61737 14.0415 1.98831 14.0415 2.37508V5.29175H11.1248V2.37508C11.1248 1.98831 10.9712 1.61737 10.6977 1.34388C10.4242 1.07039 10.0533 0.916748 9.6665 0.916748C9.27973 0.916748 8.9088 1.07039 8.63531 1.34388C8.36182 1.61737 8.20817 1.98831 8.20817 2.37508V5.55425C7.59655 5.772 7.04106 6.12315 6.58198 6.58223C6.12291 7.0413 5.77176 7.59679 5.554 8.20841H2.37484C1.98806 8.20841 1.61713 8.36206 1.34364 8.63555C1.07015 8.90904 0.916504 9.27997 0.916504 9.66675C0.916504 10.0535 1.07015 10.4245 1.34364 10.6979C1.61713 10.9714 1.98806 11.1251 2.37484 11.1251H5.2915V14.0417H2.37484C1.98806 14.0417 1.61713 14.1954 1.34364 14.4689C1.07015 14.7424 0.916504 15.1133 0.916504 15.5001C0.916504 15.8869 1.07015 16.2578 1.34364 16.5313C1.61713 16.8048 1.98806 16.9584 2.37484 16.9584H5.2915V19.8751H2.37484C1.98806 19.8751 1.61713 20.0287 1.34364 20.3022C1.07015 20.5757 0.916504 20.9466 0.916504 21.3334C0.916504 21.7202 1.07015 22.0911 1.34364 22.3646C1.61713 22.6381 1.98806 22.7917 2.37484 22.7917H5.554C5.77176 23.4034 6.12291 23.9589 6.58198 24.4179C7.04106 24.877 7.59655 25.2282 8.20817 25.4459V28.6251C8.20817 29.0119 8.36182 29.3828 8.63531 29.6563C8.9088 29.9298 9.27973 30.0834 9.6665 30.0834C10.0533 30.0834 10.4242 29.9298 10.6977 29.6563C10.9712 29.3828 11.1248 29.0119 11.1248 28.6251V25.7084H14.0415V28.6251C14.0415 29.0119 14.1951 29.3828 14.4686 29.6563C14.7421 29.9298 15.1131 30.0834 15.4998 30.0834C15.8866 30.0834 16.2575 29.9298 16.531 29.6563C16.8045 29.3828 16.9582 29.0119 16.9582 28.6251V25.7084H19.8748V28.6251C19.8748 29.0119 20.0285 29.3828 20.302 29.6563C20.5755 29.9298 20.9464 30.0834 21.3332 30.0834C21.7199 30.0834 22.0909 29.9298 22.3644 29.6563C22.6379 29.3828 22.7915 29.0119 22.7915 28.6251V25.4459C23.4031 25.2282 23.9586 24.877 24.4177 24.4179C24.8768 23.9589 25.2279 23.4034 25.4457 22.7917H28.6248C29.0116 22.7917 29.3825 22.6381 29.656 22.3646C29.9295 22.0911 30.0832 21.7202 30.0832 21.3334C30.0832 20.9466 29.9295 20.5757 29.656 20.3022C29.3825 20.0287 29.0116 19.8751 28.6248 19.8751H25.7082V16.9584H28.6248ZM22.7915 21.3334C22.7915 21.7202 22.6379 22.0911 22.3644 22.3646C22.0909 22.6381 21.7199 22.7917 21.3332 22.7917H9.6665C9.27973 22.7917 8.9088 22.6381 8.63531 22.3646C8.36182 22.0911 8.20817 21.7202 8.20817 21.3334V9.66675C8.20817 9.27997 8.36182 8.90904 8.63531 8.63555C8.9088 8.36206 9.27973 8.20841 9.6665 8.20841H21.3332C21.7199 8.20841 22.0909 8.36206 22.3644 8.63555C22.6379 8.90904 22.7915 9.27997 22.7915 9.66675V21.3334ZM18.4165 16.9584C18.1281 16.9584 17.8461 17.0439 17.6063 17.2042C17.3665 17.3644 17.1796 17.5922 17.0692 17.8587C16.9588 18.1251 16.9299 18.4184 16.9862 18.7013C17.0425 18.9841 17.1814 19.244 17.3853 19.4479C17.5893 19.6519 17.8491 19.7908 18.132 19.8471C18.4149 19.9033 18.7081 19.8744 18.9746 19.7641C19.2411 19.6537 19.4688 19.4668 19.6291 19.227C19.7893 18.9871 19.8748 18.7052 19.8748 18.4167C19.8748 18.03 19.7212 17.659 19.4477 17.3856C19.1742 17.1121 18.8033 16.9584 18.4165 16.9584Z" fill="white"/>	
	</symbol>
	<symbol id="icon-web" viewBox="0 0 30 30" fill="none">
		<path d="M25.6066 4.39336C22.7735 1.56023 19.0066 0 15 0C10.9934 0 7.22654 1.56023 4.39336 4.39336C1.56018 7.22648 0 10.9934 0 15C0 19.0066 1.56023 22.7735 4.39336 25.6066C7.22648 28.4398 10.9934 30 15 30C19.0066 30 22.7735 28.4398 25.6066 25.6066C28.4398 22.7735 30 19.0066 30 15C30 10.9934 28.4398 7.22654 25.6066 4.39336ZM25.4817 22.8902C24.5846 22.2831 23.6456 21.7585 22.672 21.3205C23.1021 19.6437 23.3574 17.8232 23.4211 15.9375H28.0911C27.9069 18.5353 26.9636 20.9266 25.4817 22.8902ZM1.90887 15.9375H6.57891C6.64266 17.8232 6.89801 19.6438 7.32797 21.3205C6.35438 21.7585 5.41535 22.283 4.51828 22.8902C3.03645 20.9266 2.09309 18.5353 1.90887 15.9375ZM4.51805 7.11012C5.41512 7.71727 6.35414 8.24186 7.32785 8.67984C6.89789 10.3565 6.6426 12.1769 6.57885 14.0625H1.90887C2.09309 11.4648 3.03639 9.07371 4.51805 7.11012ZM21.1305 4.61514C20.787 3.97107 20.4158 3.38988 20.021 2.87414C21.6071 3.53332 23.037 4.49473 24.2384 5.68647C23.5573 6.134 22.8496 6.5284 22.12 6.86918C21.8337 6.06855 21.5031 5.31369 21.1305 4.61514ZM20.3708 7.5685C18.6592 8.14225 16.8529 8.4375 15 8.4375C13.1471 8.4375 11.3408 8.14225 9.62918 7.5685C10.8282 4.15523 12.8092 1.875 15 1.875C17.1908 1.875 19.1718 4.15523 20.3708 7.5685ZM8.45525 14.0625C8.51713 12.4018 8.74148 10.8152 9.09609 9.3682C10.9791 9.99188 12.9643 10.3125 15 10.3125C17.0357 10.3125 19.0209 9.99188 20.9039 9.3682C21.2586 10.8152 21.4829 12.4018 21.5447 14.0625H8.45525ZM21.5447 15.9375C21.4828 17.5983 21.2585 19.185 20.9038 20.632C19.0207 20.0082 17.0355 19.6875 15 19.6875C12.9645 19.6875 10.9793 20.0082 9.09615 20.632C8.74148 19.185 8.51713 17.5983 8.45525 15.9375H21.5447ZM8.86951 4.61514C8.49697 5.31369 8.16639 6.06855 7.88004 6.86912C7.15043 6.5284 6.44273 6.13395 5.76158 5.68641C6.96293 4.49461 8.39285 3.53326 9.97898 2.87408C9.58424 3.38988 9.21299 3.97107 8.86951 4.61514ZM7.8801 23.1312C8.16639 23.9317 8.49697 24.6864 8.86945 25.3849C9.21299 26.0289 9.58418 26.6101 9.97893 27.1259C8.39297 26.4667 6.96316 25.5054 5.76187 24.3138C6.44303 23.8663 7.15061 23.472 7.8801 23.1312ZM9.6293 22.4317C11.341 21.8579 13.1473 21.5625 15 21.5625C16.8527 21.5625 18.659 21.8579 20.3707 22.4317C19.1717 25.8449 17.1907 28.125 15 28.125C12.8093 28.125 10.8283 25.8449 9.6293 22.4317ZM21.1305 25.3849C21.503 24.6864 21.8336 23.9317 22.1198 23.1312C22.8494 23.472 23.557 23.8664 24.2381 24.3138C23.0368 25.5054 21.607 26.4667 20.021 27.1259C20.4158 26.6101 20.787 26.0289 21.1305 25.3849ZM23.4211 14.0625C23.3573 12.177 23.1021 10.3565 22.6721 8.67984C23.6458 8.24186 24.5849 7.71727 25.4819 7.11012C26.9636 9.07365 27.9069 11.4647 28.0911 14.0625H23.4211Z" fill="white"/>
	</symbol>
	<symbol id="icon-linux" viewBox="0 0 26 30" fill="none">
		<path d="M25.0161 24.0875C24.1363 23.7272 23.76 23.2491 23.7964 22.5357C23.8339 21.7029 23.3614 21.093 23.1371 20.852C23.2726 20.3342 23.6687 18.5431 23.1375 16.9873C22.5666 15.322 20.8236 12.7787 19.0252 10.2787C18.2889 9.25196 18.2541 8.13596 18.2139 6.84368C18.1753 5.61112 18.1318 4.21399 17.4445 2.66087C16.6972 0.969744 15.1975 0 13.3299 0C12.219 0 11.0786 0.347215 10.201 0.952531C8.40392 2.19277 8.64146 4.89682 8.79864 6.68611C8.82018 6.93113 8.84044 7.16257 8.85225 7.36018C8.9569 9.11258 8.86169 10.0362 8.73716 10.3169C8.65661 10.5004 8.26001 11.0225 7.84031 11.5753C7.40624 12.1469 6.91414 12.7949 6.51076 13.3988C6.02947 14.1254 5.64095 15.236 5.26521 16.31C4.99029 17.0959 4.73061 17.8382 4.47782 18.2818C3.99871 19.1352 4.11792 19.931 4.21746 20.2987C4.03608 20.4247 3.77405 20.6728 3.55283 21.1404C3.28549 21.7109 2.74303 22.0175 1.61502 22.2344C1.09665 22.3404 0.739209 22.5584 0.552323 22.8822C0.280354 23.3534 0.428486 23.9456 0.563634 24.3502C0.763308 24.9451 0.638881 25.3216 0.41265 26.0053C0.360518 26.163 0.301403 26.3416 0.241501 26.5387C0.147172 26.8496 0.181206 27.1323 0.34242 27.3789C0.768422 28.0301 2.01151 28.2598 3.29119 28.4109C4.05526 28.5016 4.89153 28.8072 5.70036 29.1028C6.49285 29.3924 7.3123 29.6919 8.05719 29.7828C8.17041 29.7971 8.28254 29.8043 8.39064 29.8043C9.5153 29.8043 10.0234 29.058 10.1846 28.7514C10.5885 28.669 11.9818 28.405 13.4178 28.3696C14.8515 28.3286 16.2387 28.6117 16.6316 28.6998C16.7552 28.9362 17.0809 29.4763 17.6 29.7546C17.8854 29.9106 18.2824 30 18.6892 30H18.6893C19.1236 30 19.95 29.8973 20.604 29.2093C21.2563 28.518 22.8861 27.6355 24.0763 26.9911C24.3419 26.8473 24.5903 26.7128 24.8082 26.5913C25.4768 26.2207 25.8416 25.6911 25.809 25.1384C25.7819 24.6793 25.4781 24.2767 25.0161 24.0875ZM10.2156 23.9544C10.1324 23.3682 9.37828 22.7868 8.50493 22.1136C7.79083 21.5631 6.98141 20.9392 6.75843 20.4108C6.29761 19.3207 6.66085 17.404 7.2942 16.4171C7.60719 15.9229 7.86283 15.1735 8.11011 14.4488C8.37706 13.6662 8.65316 12.8571 8.96192 12.5029C9.45087 11.9499 9.90274 10.8739 9.98281 10.026C10.4407 10.4631 11.151 11.0177 11.8071 11.0177C11.9081 11.0177 12.0062 11.0046 12.0999 10.9781C12.5489 10.8485 13.2092 10.4669 13.8477 10.0981C14.3983 9.77997 15.0771 9.3877 15.3326 9.352C15.7706 9.98092 18.3157 15.6132 18.5758 17.4219C18.7815 18.8531 18.5641 20.0362 18.4549 20.4996C18.3669 20.4876 18.2621 20.4778 18.1519 20.4778C17.443 20.4778 17.2554 20.8648 17.2065 21.0958C17.0808 21.6961 17.0675 23.6157 17.0661 24.047C16.8098 24.3727 15.5135 25.9063 13.6524 26.182C12.8943 26.2922 12.1864 26.348 11.5484 26.348C11.0031 26.348 10.6551 26.3059 10.5106 26.284L9.5754 25.2139C9.94416 25.0319 10.3128 24.6477 10.2156 23.9544ZM11.4024 6.30978C11.3731 6.32237 11.3444 6.33584 11.3162 6.35021C11.3133 6.28686 11.3068 6.22263 11.2966 6.1582C11.1945 5.5705 10.8048 5.1439 10.3702 5.1439C10.338 5.1439 10.3056 5.14636 10.2701 5.15177C10.0115 5.19485 9.80871 5.38912 9.69756 5.66453C9.79504 5.0602 10.1374 4.61275 10.5437 4.61275C11.0207 4.61275 11.4237 5.25564 11.4237 6.01656C11.4237 6.11247 11.4167 6.20788 11.4024 6.30978ZM15.1092 6.76293C15.1529 6.62385 15.1765 6.47335 15.1765 6.31716C15.1765 5.62725 14.7388 5.08675 14.18 5.08675C13.6339 5.08675 13.1896 5.63866 13.1896 6.31716C13.1896 6.36339 13.1918 6.40971 13.1962 6.45594C13.1673 6.44483 13.139 6.43401 13.1115 6.42358C13.0486 6.23325 13.0169 6.03466 13.0169 5.83194C13.0169 5.00698 13.5441 4.33577 14.1923 4.33577C14.8404 4.33577 15.3677 5.00698 15.3677 5.83194C15.3677 6.17512 15.273 6.50267 15.1092 6.76293ZM14.6313 8.36858C14.6219 8.41028 14.6021 8.42878 14.3823 8.54307C14.2714 8.60081 14.1333 8.67271 13.9604 8.77796L13.845 8.84789C13.3809 9.12921 12.2943 9.78813 11.9993 9.82679C11.799 9.85374 11.675 9.77603 11.3964 9.58669C11.3335 9.5439 11.2666 9.49846 11.1953 9.45272C10.693 9.12311 10.3699 8.76006 10.3334 8.61812C10.4971 8.49153 10.9031 8.17471 11.1109 7.98713C11.5328 7.59487 11.9573 7.33126 12.1674 7.33126C12.1785 7.33126 12.1886 7.33205 12.199 7.33401C12.4459 7.37759 13.0548 7.62064 13.4996 7.79808C13.7052 7.88012 13.8827 7.95094 14.0077 7.99579C14.4012 8.13094 14.6064 8.30386 14.6313 8.36858ZM18.1671 26.7002C18.3891 25.6988 18.6448 24.3365 18.6034 23.5333C18.5939 23.3509 18.5777 23.1523 18.5621 22.9603C18.5329 22.6013 18.4895 22.0677 18.5342 21.9094C18.5431 21.9053 18.5529 21.9017 18.5639 21.8987C18.5657 22.3578 18.6655 23.2737 19.3979 23.593C19.6161 23.6883 19.8656 23.7365 20.1392 23.7365C20.8729 23.7365 21.6869 23.3765 22.0204 23.0431C22.2167 22.8468 22.3818 22.6066 22.4975 22.4163C22.5228 22.4904 22.5383 22.5872 22.5302 22.7119C22.4866 23.3891 22.8157 24.2876 23.4421 24.6187L23.5333 24.6666C23.7563 24.7836 24.3489 25.0947 24.3584 25.2423C24.3584 25.2423 24.3534 25.2597 24.3203 25.2904C24.1719 25.426 23.6495 25.6928 23.1443 25.9508C22.2482 26.4083 21.2324 26.927 20.7762 27.4068C20.1339 28.0827 19.4074 28.5368 18.9687 28.5368C18.9159 28.5368 18.8678 28.5301 18.825 28.5165C18.3485 28.368 17.9564 27.6805 18.1671 26.7002ZM1.92653 24.1454C1.87794 23.918 1.83958 23.7385 1.88079 23.5646C1.91069 23.4358 2.54679 23.2977 2.81847 23.2387C3.20041 23.1558 3.59542 23.0702 3.85372 22.9134C4.203 22.7018 4.39215 22.3116 4.55897 21.9673C4.67976 21.7184 4.80448 21.461 4.95291 21.3765C4.96127 21.3715 4.97406 21.3658 4.99845 21.3658C5.27652 21.3658 5.86 21.9504 6.1962 22.4736C6.28147 22.6055 6.43944 22.8698 6.6222 23.1758C7.16879 24.0904 7.91722 25.343 8.30811 25.7628C8.66034 26.1402 9.23054 26.8658 9.09028 27.4881C8.98759 27.971 8.4409 28.3637 8.31195 28.4505C8.26513 28.4611 8.20719 28.4665 8.13903 28.4665C7.39089 28.4665 5.90996 27.8441 5.11432 27.5097L4.99658 27.4602C4.55228 27.2739 3.82697 27.1566 3.12555 27.0431C2.56745 26.9527 1.80318 26.829 1.67649 26.7173C1.5738 26.6021 1.69292 26.2276 1.79797 25.8972C1.87361 25.6598 1.95171 25.4143 1.9945 25.1573C2.05519 24.7473 1.98377 24.4136 1.92653 24.1454Z" fill="white"/>
	</symbol>
</svg>
